<?xml version="1.0" encoding="utf-8"?>
<!-- Generator: Adobe Illustrator 18.0.0, SVG Export Plug-In . SVG Version: 6.00 Build 0)  -->
<!DOCTYPE svg PUBLIC "-//W3C//DTD SVG 1.1//EN" "http://www.w3.org/Graphics/SVG/1.1/DTD/svg11.dtd">
<svg version="1.1" id="Layer_1" xmlns="http://www.w3.org/2000/svg" xmlns:xlink="http://www.w3.org/1999/xlink" x="0px" y="0px"
	 viewBox="0 0 269.8 437.2" enable-background="new 0 0 269.8 437.2" xml:space="preserve">
<g>
	<polygon fill="#EBEBEB" points="44.8,139.8 26.7,152.2 67.5,152.2 85.6,139.8 	"/>
	<rect x="24.8" y="154.1" fill="#EBEBEB" width="41.9" height="28.9"/>
	<polygon fill="#EBEBEB" points="69.4,236.7 87.5,224.2 87.5,196.1 69.4,208.6 	"/>
	<polygon fill="#EBEBEB" points="45.7,194.8 45.7,194.8 44.8,194.8 26.7,207.3 67.5,207.3 85.6,194.8 45.7,194.8 	"/>
	<polygon fill="#EBEBEB" points="149,181.6 167.1,169.2 167.1,141.1 149,153.5 	"/>
	<rect x="104.4" y="154.1" fill="#EBEBEB" width="41.9" height="28.9"/>
	<polygon fill="#EBEBEB" points="69.4,181.6 87.5,169.2 87.5,141.1 69.4,153.5 	"/>
	<polygon fill="#EBEBEB" points="149,236.7 167.1,224.2 167.1,196.1 149,208.6 	"/>
	<polygon fill="#EBEBEB" points="124.4,194.8 106.3,207.3 147.2,207.3 165.2,194.8 	"/>
	<rect x="24.8" y="209.1" fill="#EBEBEB" width="41.9" height="28.8"/>
	<rect x="104.4" y="209.1" fill="#EBEBEB" width="41.9" height="28.8"/>
	<polygon fill="#EBEBEB" points="106.3,152.2 147.2,152.2 165.2,139.8 124.4,139.8 	"/>
	<polygon fill="#EBEBEB" points="69.4,126.6 87.5,114.1 87.5,86 69.4,98.5 	"/>
	<polygon fill="#EBEBEB" points="44.8,84.7 26.7,97.2 67.5,97.2 85.6,84.7 	"/>
	<rect x="24.8" y="99" fill="#EBEBEB" width="41.9" height="28.9"/>
	<polygon fill="#EBEBEB" points="204.1,84.7 186,97.2 226.8,97.2 244.9,84.7 	"/>
	<path fill="#EBEBEB" d="M104.4,127.9h21c0,0,0,0,0,0c0,0,0,0,0,0h21V99h-41.9V127.9L104.4,127.9z"/>
	<polygon fill="#EBEBEB" points="228.7,181.6 246.8,169.2 246.8,141.1 228.7,153.5 	"/>
	<path fill="#EBEBEB" d="M184.1,127.9h21c0,0,0,0,0,0c0,0,0,0,0,0h21V99h-41.9L184.1,127.9L184.1,127.9z"/>
	<rect x="184.1" y="154.1" fill="#EBEBEB" width="41.9" height="28.9"/>
	<polygon fill="#EBEBEB" points="228.7,126.6 246.8,114.1 246.8,86 228.7,98.5 	"/>
	<polygon fill="#EBEBEB" points="186,152.2 226.8,152.2 244.9,139.8 204.1,139.8 	"/>
	<polygon fill="#EBEBEB" points="149,126.6 167.1,114.1 167.1,86 149,98.5 	"/>
	<polygon fill="#EBEBEB" points="124.4,84.7 106.3,97.2 147.2,97.2 165.2,84.7 	"/>
	<polygon fill="#EBEBEB" points="228.7,236.7 246.8,224.2 246.8,196.1 228.7,208.6 	"/>
	<rect x="184.1" y="209.1" fill="#EBEBEB" width="41.9" height="28.8"/>
	<polygon fill="#EBEBEB" points="205.1,194.8 205.1,194.8 204.1,194.8 186,207.3 226.8,207.3 244.9,194.8 205.1,194.8 	"/>
</g>
<g>
	<polygon fill="#EBEBEB" points="44.8,305.7 26.7,318.2 67.5,318.2 85.6,305.7 	"/>
	<rect x="24.8" y="320" fill="#EBEBEB" width="41.9" height="28.9"/>
	<polygon fill="#EBEBEB" points="69.4,402.6 87.5,390.1 87.5,362 69.4,374.5 	"/>
	<polygon fill="#EBEBEB" points="45.7,360.8 45.7,360.7 44.8,360.7 26.7,373.2 67.5,373.2 85.6,360.7 45.7,360.7 	"/>
	<polygon fill="#EBEBEB" points="149,347.5 167.1,335.1 167.1,307 149,319.5 	"/>
	<rect x="104.4" y="320" fill="#EBEBEB" width="41.9" height="28.9"/>
	<polygon fill="#EBEBEB" points="69.4,347.5 87.5,335.1 87.5,307 69.4,319.5 	"/>
	<polygon fill="#EBEBEB" points="149,402.6 167.1,390.1 167.1,362 149,374.5 	"/>
	<polygon fill="#EBEBEB" points="124.4,360.7 106.3,373.2 147.2,373.2 165.2,360.7 	"/>
	<rect x="24.8" y="375" fill="#EBEBEB" width="41.9" height="28.8"/>
	<rect x="104.4" y="375" fill="#EBEBEB" width="41.9" height="28.8"/>
	<polygon fill="#EBEBEB" points="106.3,318.2 147.2,318.2 165.2,305.7 124.4,305.7 	"/>
	<polygon fill="#EBEBEB" points="69.4,292.5 87.5,280.1 87.5,252 69.4,264.4 	"/>
	<polygon fill="#EBEBEB" points="44.8,250.7 26.7,263.1 67.5,263.1 85.6,250.7 	"/>
	<rect x="24.8" y="265" fill="#EBEBEB" width="41.9" height="28.9"/>
	<polygon fill="#EBEBEB" points="204.1,250.7 186,263.1 226.8,263.1 244.9,250.7 	"/>
	<path fill="#EBEBEB" d="M104.4,293.8h21c0,0,0,0,0,0c0,0,0,0,0,0h21V265h-41.9V293.8L104.4,293.8z"/>
	<polygon fill="#EBEBEB" points="228.7,347.5 246.8,335.1 246.8,307 228.7,319.5 	"/>
	<path fill="#EBEBEB" d="M184.1,293.8h21c0,0,0,0,0,0c0,0,0,0,0,0h21V265h-41.9L184.1,293.8L184.1,293.8z"/>
	<rect x="184.1" y="320" fill="#EBEBEB" width="41.9" height="28.9"/>
	<polygon fill="#EBEBEB" points="228.7,292.5 246.8,280.1 246.8,252 228.7,264.4 	"/>
	<polygon fill="#EBEBEB" points="186,318.2 226.8,318.2 244.9,305.7 204.1,305.7 	"/>
	<polygon fill="#EBEBEB" points="149,292.5 167.1,280.1 167.1,252 149,264.4 	"/>
	<polygon fill="#EBEBEB" points="124.4,250.7 106.3,263.1 147.2,263.1 165.2,250.7 	"/>
	<polygon fill="#EBEBEB" points="228.7,402.6 246.8,390.1 246.8,362 228.7,374.5 	"/>
	<rect x="184.1" y="375" fill="#EBEBEB" width="41.9" height="28.8"/>
	<polygon fill="#EBEBEB" points="205.1,360.8 205.1,360.7 204.1,360.7 186,373.2 226.8,373.2 244.9,360.7 205.1,360.7 	"/>
</g>
	<polygon fill="#EBEBEB" points="70.3,73.2 88.4,60.8 88.4,32.7 70.3,45.2 "/>
	<polygon fill="#EBEBEB" points="45.7,31.4 27.6,43.9 68.4,43.9 86.5,31.4 "/>
	<rect x="25.7" y="45.7" fill="#EBEBEB" width="41.9" height="28.9"/>
	<polygon fill="#EBEBEB" points="205,31.4 186.9,43.9 227.8,43.9 245.9,31.4 "/>
	<path fill="#EBEBEB" d="M105.4,74.5h21c0,0,0,0,0,0c0,0,0,0,0,0h21V45.7h-41.9V74.5L105.4,74.5z"/>
	<path fill="#EBEBEB" d="M185.1,74.5h21c0,0,0,0,0,0c0,0,0,0,0,0h21V45.7h-41.9L185.1,74.5L185.1,74.5z"/>
	<polygon fill="#EBEBEB" points="229.7,73.2 247.8,60.8 247.8,32.7 229.7,45.2 "/>
	<polygon fill="#EBEBEB" points="150,73.2 168.1,60.8 168.1,32.7 150,45.2 "/>
	<polygon fill="#EBEBEB" points="125.4,31.4 107.3,43.9 148.1,43.9 166.2,31.4 "/>
</svg>
