<?xml version="1.0" encoding="utf-8"?>
<!-- Generator: Adobe Illustrator 18.0.0, SVG Export Plug-In . SVG Version: 6.00 Build 0)  -->
<!DOCTYPE svg PUBLIC "-//W3C//DTD SVG 1.1//EN" "http://www.w3.org/Graphics/SVG/1.1/DTD/svg11.dtd">
<svg version="1.1" id="Layer_1" xmlns="http://www.w3.org/2000/svg" xmlns:xlink="http://www.w3.org/1999/xlink" x="0px" y="0px"
	 viewBox="0 0 570.4 486.7" enable-background="new 0 0 570.4 486.7" xml:space="preserve">
<g>
	<path fill="#E3C7CC" d="M242.4,117.8l40.8,23.6l0.4,0.3c0.7,0.4,1.5,0.6,2.3,0.6l0,0c0.8,0,1.6-0.2,2.3-0.6l0.4-0.3l40.8-23.6
		c1.4-0.8,2.3-2.3,2.3-3.9V66.3c0-1.6-0.9-3.1-2.3-3.9c-0.3-0.2-0.6-0.3-0.9-0.4l-40.8-23.5c-1.4-0.8-3.1-0.8-4.5,0l-40.7,23.8
		c-1.4,0.8-2.3,2.3-2.3,3.9l0,0v47.5C240.1,115.5,241,117,242.4,117.8z M322.7,111.3l-32.2,18.5v-37l32.2-18.6V111.3z M286,47.9
		l32.3,18.7l-5.2,3L286,84.9l-32.3-18.7L286,47.9z M249.2,74.2l32.3,18.6v37l-32.3-18.5V74.2z"/>
	<path fill="#E3C7CC" d="M329.5,372.5c-0.3-0.2-0.6-0.3-0.9-0.4l-40.8-23.5c-1.4-0.8-3.1-0.8-4.5,0l-41.1,23.7
		c-1.4,0.8-2.3,2.3-2.3,3.9l0,0V424c0,1.6,0.9,3.1,2.3,3.9l40.8,23.6l0.4,0.3c0.7,0.4,1.5,0.6,2.3,0.6l0,0c0.8,0,1.6-0.2,2.3-0.6
		l0.4-0.3l40.8-23.6c1.4-0.8,2.3-2.3,2.3-3.9v-47.5C331.4,374.9,330.8,373.4,329.5,372.5z M281.4,439.9l-32.2-18.6v-37l32.2,18.6
		V439.9z M286,395l-32.3-18.7l32.3-18.5l32.3,18.7L286,395z M322.7,421.3l-32.2,18.6v-37l32.2-18.6V421.3z"/>
	<path fill="#E3C7CC" d="M84.1,201.6l40.8,23.6c0.1,0.1,0.3,0.2,0.4,0.3c0.7,0.4,1.5,0.6,2.3,0.6l0,0c0.8,0,1.6-0.2,2.3-0.6
		c0.1-0.1,0.3-0.2,0.4-0.3l40.8-23.6c1.4-0.8,2.3-2.3,2.3-3.9v-47.5c0-1.6-0.9-3.1-2.3-3.9c-0.3-0.2-0.6-0.3-0.9-0.4l-40.8-23.5
		c-1.4-0.8-3.1-0.8-4.5,0l-40.7,23.7c-1.4,0.8-2.3,2.3-2.3,3.9l0,0v47.5C81.8,199.3,82.7,200.8,84.1,201.6z M164.5,195.1l-32.2,18.6
		v-37l32.2-18.6V195.1z M127.5,131.6l32.3,18.7l-32.1,18.5l-32.3-18.7L127.5,131.6z M90.9,158l32.1,18.6v37l-32.1-18.6V158z"/>
	<path fill="#E3C7CC" d="M173.5,338.2v-47.5c0-1.6-0.9-3.1-2.3-3.9l-0.9-0.4l-40.8-23.4c-1.4-0.8-3.1-0.8-4.5,0l-41,23.7
		c-1.4,0.8-2.3,2.3-2.3,3.9l0,0v47.5c0,1.6,0.9,3.1,2.3,3.9l40.8,23.6c0.1,0.1,0.3,0.2,0.4,0.3c0.7,0.4,1.5,0.6,2.3,0.6l0,0
		c0.8,0,1.6-0.2,2.3-0.6c0.1-0.1,0.3-0.2,0.4-0.3l40.8-23.6C172.5,341.4,173.5,339.9,173.5,338.2z M123,354.1l-32.2-18.6v-37
		l32.2,18.6V354.1z M127.5,309.3l-32.1-18.7l32.1-18.5l32.3,18.7L127.5,309.3z M164.3,335.6L132,354.1v-37l32.2-18.6V335.6z"/>
	<path fill="#E3C7CC" d="M490.1,150.1c0-1.6-0.9-3.1-2.3-3.9l-41.2-23.7c-1.4-0.8-3.1-0.8-4.5,0l-40.8,23.5
		c-0.3,0.1-0.6,0.2-0.9,0.4c-1.4,0.8-2.3,2.3-2.3,3.9v47.5c0,1.6,0.9,3.1,2.3,3.9l40.8,23.6l0.4,0.3c0.7,0.4,1.5,0.6,2.3,0.6l0,0
		c0.8,0,1.6-0.2,2.3-0.6l0.4-0.3l40.8-23.6c1.4-0.8,2.3-2.3,2.3-3.9v-47.5l0,0L490.1,150.1z M439.6,213.5l-32.2-18.6V158l32.2,18.6
		V213.5z M444.1,168.6l-32.1-18.4l32.4-18.7l32.1,18.5L444.1,168.6z M481,194.9L449,213.6v-37l32.2-18.6L481,194.9z"/>
	<path fill="#E3C7CC" d="M487.8,286.7l-41.2-23.7c-1.4-0.8-3.1-0.8-4.5,0l-40.8,23.4c-0.3,0.1-0.6,0.2-0.9,0.4
		c-1.4,0.8-2.3,2.3-2.3,3.9v47.5c0,1.6,0.9,3.1,2.3,3.9l40.8,23.6l0.4,0.3c0.7,0.4,1.5,0.6,2.3,0.6l0,0c0.8,0,1.6-0.2,2.3-0.6
		l0.4-0.3l40.8-23.6c1.4-0.8,2.3-2.3,2.3-3.9v-47.5l0,0C489.7,289.1,489,287.6,487.8,286.7z M439.6,354.1l-32.2-18.6v-37l32.2,18.6
		V354.1z M444.1,309.3l-32.1-18.5l32.4-18.7l32.1,18.5L444.1,309.3z M481,335.6L449,354.1v-37l32.2-18.6L481,335.6z"/>
	<path fill="#E3C7CC" d="M373,114.2c0.3,0.2,0.7,0.3,1.1,0.3c1.3,0,2.3-1,2.3-2.2c0-1.3-1-2.3-2.2-2.3c-1.3,0-2.3,1-2.3,2.2
		C371.9,113,372.3,113.8,373,114.2z"/>
	<path fill="#E3C7CC" d="M349.4,100.6c0.3,0.2,0.7,0.3,1.1,0.3c1.3,0,2.2-1,2.2-2.3s-1-2.2-2.3-2.2c-0.8,0-1.5,0.4-1.9,1.1
		C347.9,98.6,348.2,99.9,349.4,100.6C349.3,100.6,349.3,100.6,349.4,100.6z"/>
	<path fill="#E3C7CC" d="M404.4,132.3c0.3,0.2,0.7,0.3,1.1,0.3c1.3,0,2.3-1,2.3-2.2c0-1.3-1-2.3-2.2-2.3s-2.3,1-2.3,2.2
		C403.3,131.1,403.7,131.9,404.4,132.3z"/>
	<path fill="#E3C7CC" d="M388.7,123.2c0.3,0.2,0.7,0.3,1.1,0.3c1.2,0.1,2.3-0.9,2.4-2.2c0.1-1.2-0.9-2.3-2.2-2.4
		c-0.9,0-1.8,0.5-2.2,1.3C387.4,121.4,387.7,122.6,388.7,123.2z"/>
	<path fill="#E3C7CC" d="M365.2,109.7c0.3,0.2,0.7,0.3,1.1,0.3c1.3,0,2.3-1,2.2-2.3c0-0.8-0.4-1.5-1.1-1.9c-1-0.7-2.4-0.5-3.2,0.5
		c-0.7,1-0.5,2.4,0.5,3.2C364.9,109.5,365,109.6,365.2,109.7z"/>
	<path fill="#E3C7CC" d="M396.5,127.8c0.3,0.2,0.7,0.3,1.1,0.3c1.3,0,2.3-1,2.2-2.3c0-0.8-0.4-1.5-1.1-1.9c-1-0.7-2.4-0.5-3.2,0.5
		c-0.7,1-0.5,2.4,0.5,3.2C396.3,127.6,396.4,127.7,396.5,127.8z"/>
	<path fill="#E3C7CC" d="M381.1,118.7c0.3,0.2,0.7,0.3,1.1,0.3c0.8,0,1.6-0.4,2-1.1c0.6-1.1,0.2-2.4-0.9-3.1c-1.1-0.5-2.5,0-3,1.1
		C379.9,116.9,380.2,118.1,381.1,118.7z"/>
	<path fill="#E3C7CC" d="M341.6,96.1c0.3,0.2,0.7,0.3,1.1,0.3c0.8,0,1.6-0.4,1.9-1.1c0.6-1.1,0.3-2.5-0.8-3.1
		c-1.1-0.6-2.5-0.3-3.1,0.8S340.5,95.4,341.6,96.1C341.6,96.1,341.6,96.1,341.6,96.1z"/>
	<path fill="#E3C7CC" d="M357.3,105.1c0.3,0.2,0.7,0.3,1.1,0.3c1.3,0,2.3-1,2.2-2.3c0-0.8-0.4-1.5-1.1-1.9c-1-0.7-2.4-0.5-3.2,0.5
		c-0.7,1-0.5,2.4,0.5,3.2C357.1,105,357.2,105.1,357.3,105.1z"/>
	<path fill="#E3C7CC" d="M412.2,136.8c0.3,0.2,0.7,0.3,1.1,0.3c1.3,0,2.3-1,2.3-2.2c0-1.3-1-2.3-2.2-2.3c-1.3,0-2.3,1-2.3,2.2
		C411.1,135.7,411.5,136.4,412.2,136.8z"/>
	<path fill="#E3C7CC" d="M333.8,91.6c0.3,0.2,0.7,0.3,1.1,0.3c1.3,0,2.3-1,2.3-2.2c0-1.3-1-2.3-2.2-2.3c-1.3,0-2.3,1-2.3,2.2
		C332.7,90.4,333.1,91.1,333.8,91.6z"/>
	<path fill="#E3C7CC" d="M444.2,242.1c1.3,0,2.3-1,2.3-2.3c0,0,0,0,0,0c0-1.2-1-2.2-2.2-2.2c0,0,0,0,0,0c-1.2,0-2.2,1-2.3,2.2
		C441.9,241.1,442.9,242.1,444.2,242.1z"/>
	<path fill="#E3C7CC" d="M444.2,233c1.2,0,2.2-0.9,2.3-2.2c0,0,0,0,0,0c0-1.3-1-2.3-2.2-2.3c0,0,0,0,0,0c-1.3,0-2.3,1.1-2.3,2.3
		C441.9,232,442.9,233,444.2,233z"/>
	<path fill="#E3C7CC" d="M444.2,260.2c1.3,0,2.3-1,2.3-2.3c0-1.3-1-2.3-2.3-2.3s-2.3,1-2.3,2.3C441.9,259.2,442.9,260.2,444.2,260.2
		z"/>
	<path fill="#E3C7CC" d="M444.2,251.2c1.3-0.3,2.1-1.5,1.8-2.7c-0.2-0.9-0.9-1.6-1.8-1.8c-1.3,0.3-2.1,1.5-1.8,2.7
		C442.6,250.3,443.3,251,444.2,251.2z"/>
	<path fill="#E3C7CC" d="M334,396.6c-1.1,0.6-1.4,2-0.8,3.1c0.4,0.7,1.1,1.1,1.9,1.1c0.4,0,0.8-0.1,1.1-0.3c1-0.7,1.2-2.2,0.5-3.2
		C336.1,396.4,334.9,396.1,334,396.6z"/>
	<path fill="#E3C7CC" d="M388.8,364.9c-1.1,0.6-1.4,2-0.8,3c0,0,0,0,0,0.1c0.4,0.7,1.2,1.1,2,1.1c0.4,0,0.8-0.1,1.1-0.3
		c1.1-0.5,1.6-1.9,1.1-3c-0.5-1.1-1.9-1.6-3-1.1C389.1,364.7,389,364.8,388.8,364.9z"/>
	<path fill="#E3C7CC" d="M341.8,392c-1.1,0.6-1.4,2-0.8,3.1c0.4,0.7,1.1,1.1,1.9,1.1c0.4,0,0.8-0.1,1.1-0.3c1-0.7,1.2-2.2,0.5-3.2
		C343.9,391.9,342.8,391.6,341.8,392z"/>
	<path fill="#E3C7CC" d="M381.1,369.4c-1.1,0.6-1.4,2-0.8,3.1c0.4,0.7,1.1,1.1,1.9,1.1c0.4,0,0.8-0.1,1.1-0.3c1.1-0.5,1.6-1.9,1.1-3
		c-0.5-1.1-1.9-1.6-3-1.1C381.3,369.2,381.2,369.3,381.1,369.4z"/>
	<path fill="#E3C7CC" d="M404.6,355.8c-1.1,0.6-1.5,2-0.9,3.1c0.4,0.7,1.2,1.1,2,1.1c0.4,0,0.8-0.1,1.1-0.3c1.1-0.5,1.6-1.9,1.1-3
		c-0.5-1.1-1.9-1.6-3-1.1C404.8,355.6,404.7,355.7,404.6,355.8z"/>
	<path fill="#E3C7CC" d="M396.7,360.3c-1.1,0.6-1.4,2-0.8,3.1c0.4,0.7,1.1,1.1,1.9,1.1c0.4,0,0.8-0.1,1.1-0.3c1.1-0.6,1.5-2,0.8-3.1
		C399.2,360.1,397.8,359.7,396.7,360.3z"/>
	<path fill="#E3C7CC" d="M365.3,378.5c-1.1,0.6-1.4,2-0.8,3.1c0.4,0.7,1.1,1.1,1.9,1.1c0.4,0,0.8-0.1,1.1-0.3c1-0.7,1.2-2.2,0.5-3.2
		C367.5,378.3,366.3,378,365.3,378.5z"/>
	<path fill="#E3C7CC" d="M373.2,373.9c-1.1,0.6-1.4,2-0.8,3.1c0.4,0.7,1.1,1.1,1.9,1.1c0.4,0,0.8-0.1,1.1-0.3c1-0.7,1.2-2.2,0.5-3.2
		C375.3,373.8,374.2,373.5,373.2,373.9z"/>
	<path fill="#E3C7CC" d="M357.5,383c-1.1,0.6-1.5,1.9-0.9,3c0,0,0,0,0,0.1c0.4,0.7,1.2,1.1,2,1.1c0.4,0,0.8-0.1,1.1-0.3
		c1.1-0.6,1.4-2,0.8-3.1C360,382.7,358.6,382.4,357.5,383z"/>
	<path fill="#E3C7CC" d="M349.6,387.5c-1.1,0.6-1.4,2-0.8,3.1c0.4,0.7,1.1,1.1,1.9,1.1c0.4,0,0.8-0.1,1.1-0.3c1.1-0.5,1.6-1.9,1.1-3
		c-0.5-1.1-1.9-1.6-3-1.1C349.9,387.3,349.8,387.4,349.6,387.5z"/>
	<path fill="#E3C7CC" d="M412.4,351.3c-1.1,0.6-1.4,2-0.8,3.1c0.4,0.7,1.1,1.1,1.9,1.1c0.4,0,0.8-0.1,1.1-0.3c1-0.7,1.2-2.2,0.5-3.2
		C414.5,351.1,413.4,350.8,412.4,351.3z"/>
	<path fill="#E3C7CC" d="M190.9,369.4c-1-0.7-2.4-0.5-3.2,0.5c-0.7,1-0.5,2.4,0.5,3.2c0.1,0.1,0.3,0.2,0.4,0.2
		c0.3,0.2,0.7,0.3,1.1,0.3c1.3,0,2.3-1,2.3-2.2C192,370.6,191.6,369.8,190.9,369.4z"/>
	<path fill="#E3C7CC" d="M198.8,373.9c-1-0.7-2.4-0.5-3.2,0.5c-0.7,1-0.5,2.4,0.5,3.2c0.1,0.1,0.3,0.2,0.4,0.2
		c0.3,0.2,0.7,0.3,1.1,0.3c1.3,0,2.3-1,2.2-2.3C199.9,375.1,199.5,374.3,198.8,373.9z"/>
	<path fill="#E3C7CC" d="M159.6,351.3c-1-0.7-2.4-0.5-3.2,0.5c-0.7,1-0.5,2.4,0.5,3.2c0.1,0.1,0.3,0.2,0.4,0.2
		c0.3,0.2,0.7,0.3,1.1,0.3c1.3,0,2.3-1,2.2-2.3C160.7,352.4,160.3,351.7,159.6,351.3z"/>
	<path fill="#E3C7CC" d="M206.7,378.5c-1-0.7-2.4-0.5-3.2,0.5c-0.7,1-0.5,2.4,0.5,3.2c0.1,0.1,0.3,0.2,0.4,0.2
		c0.3,0.2,0.7,0.3,1.1,0.3c1.3,0,2.3-1,2.2-2.3C207.8,379.6,207.4,378.9,206.7,378.5z"/>
	<path fill="#E3C7CC" d="M183.1,364.9c-1-0.7-2.4-0.5-3.2,0.5c-0.7,1-0.5,2.4,0.5,3.2c0.1,0.1,0.3,0.2,0.4,0.2
		c0.3,0.2,0.7,0.3,1.1,0.3c0.8,0,1.6-0.4,2-1.1C184.6,366.9,184.3,365.5,183.1,364.9C183.2,364.9,183.2,364.9,183.1,364.9z"/>
	<path fill="#E3C7CC" d="M175.3,360.3c-1-0.7-2.4-0.5-3.2,0.5c-0.7,1-0.5,2.4,0.5,3.2c0.1,0.1,0.3,0.2,0.4,0.2
		c0.3,0.2,0.7,0.3,1.1,0.3c1.3,0,2.3-1,2.2-2.3C176.4,361.5,176,360.7,175.3,360.3z"/>
	<path fill="#E3C7CC" d="M214.5,383c-1-0.7-2.4-0.5-3.2,0.5c-0.7,1-0.5,2.4,0.5,3.2c0.1,0.1,0.3,0.2,0.4,0.2
		c0.3,0.2,0.7,0.3,1.1,0.3c1.3,0,2.3-1,2.2-2.3C215.6,384.1,215.2,383.4,214.5,383z"/>
	<path fill="#E3C7CC" d="M167.5,355.8c-1-0.7-2.4-0.5-3.2,0.5c-0.7,1-0.5,2.4,0.5,3.2c0.1,0.1,0.3,0.2,0.4,0.2
		c0.3,0.2,0.7,0.3,1.1,0.3c1.3,0,2.3-1,2.2-2.3C168.6,356.9,168.1,356.2,167.5,355.8z"/>
	<path fill="#E3C7CC" d="M230.2,392c-1-0.7-2.4-0.5-3.2,0.5c-0.7,1-0.5,2.4,0.5,3.2c0.1,0.1,0.3,0.2,0.4,0.2
		c0.3,0.2,0.7,0.3,1.1,0.3c1.3,0,2.3-1,2.2-2.3C231.3,393.2,230.9,392.4,230.2,392z"/>
	<path fill="#E3C7CC" d="M222.6,387.5c-1-0.7-2.4-0.5-3.2,0.5c-0.7,1-0.5,2.4,0.5,3.2c0.1,0.1,0.3,0.2,0.4,0.2
		c0.3,0.2,0.7,0.3,1.1,0.3c1.3,0,2.3-1,2.2-2.3C223.7,388.6,223.3,387.9,222.6,387.5z"/>
	<path fill="#E3C7CC" d="M238.1,396.6c-1-0.7-2.4-0.5-3.2,0.5c-0.7,1-0.5,2.4,0.5,3.2c0.1,0.1,0.3,0.2,0.4,0.2
		c0.3,0.2,0.7,0.3,1.1,0.3c1.3,0,2.3-1,2.2-2.3C239.2,397.7,238.7,397,238.1,396.6z"/>
	<circle fill="#E3C7CC" cx="127.7" cy="248.7" r="2.3"/>
	<circle fill="#E3C7CC" cx="127.7" cy="230.6" r="2.3"/>
	<circle fill="#E3C7CC" cx="127.7" cy="257.7" r="2.3"/>
	<circle fill="#E3C7CC" cx="127.7" cy="239.6" r="2.3"/>
	<path fill="#E3C7CC" d="M158.5,137.1c0.4,0,0.8-0.1,1.2-0.3c1.1-0.6,1.4-2,0.8-3.1c-0.6-1.1-2-1.5-3.1-0.8c-1.1,0.6-1.5,2-0.8,3.1
		C156.9,136.7,157.7,137.1,158.5,137.1z"/>
	<path fill="#E3C7CC" d="M166.3,132.6c0.4,0,0.8-0.1,1.1-0.3c1.1-0.6,1.5-2,0.8-3.1c-0.6-1.1-2-1.5-3.1-0.8c-1.1,0.6-1.4,2-0.8,3.1
		C164.8,132.2,165.5,132.6,166.3,132.6z"/>
	<path fill="#E3C7CC" d="M213.5,105.5c0.4,0,0.8-0.1,1.1-0.3c1.1-0.6,1.4-2,0.8-3.1c-0.6-1.1-2-1.4-3.1-0.9c-1.1,0.6-1.4,2-0.9,3.1
		C211.9,105.1,212.7,105.5,213.5,105.5z"/>
	<path fill="#E3C7CC" d="M197.6,114.6c0.4,0,0.8-0.1,1.1-0.3c1.1-0.6,1.4-2,0.8-3.1c-0.6-1.1-2-1.5-3.1-0.8c-1.1,0.6-1.5,2-0.8,3.1
		C196.1,114.1,196.8,114.6,197.6,114.6z"/>
	<path fill="#E3C7CC" d="M221.1,101c0.4,0,0.8-0.1,1.1-0.3c1.1-0.5,1.6-1.9,1.1-3c-0.5-1.1-1.9-1.6-3-1.1c-0.1,0.1-0.3,0.1-0.4,0.2
		c-1.1,0.6-1.5,1.9-0.9,3c0,0,0,0,0,0.1C219.5,100.6,220.3,101,221.1,101z"/>
	<path fill="#E3C7CC" d="M205.5,110c0.4,0,0.8-0.1,1.1-0.3c1.1-0.6,1.4-2,0.8-3.1s-2-1.4-3.1-0.8c-1.1,0.6-1.4,2-0.8,3
		C203.9,109.6,204.6,110,205.5,110z"/>
	<path fill="#E3C7CC" d="M189.8,119.1c0.4,0,0.8-0.1,1.1-0.3c1.1-0.6,1.4-2,0.8-3c-0.6-1.1-2-1.4-3-0.8c-1.1,0.6-1.4,2-0.8,3
		C188.3,118.7,189,119.1,189.8,119.1z"/>
	<path fill="#E3C7CC" d="M174.1,128.1c0.4,0,0.8-0.1,1.1-0.3c1.1-0.6,1.4-2,0.9-3.1c-0.6-1.1-2-1.4-3.1-0.9c-1.1,0.6-1.4,2-0.8,3.1
		C172.6,127.7,173.3,128.1,174.1,128.1z"/>
	<path fill="#E3C7CC" d="M236.8,92c0.4,0,0.8-0.1,1.1-0.3c1.1-0.6,1.4-2,0.9-3.1c-0.6-1.1-2-1.4-3.1-0.8c-1.1,0.6-1.4,2-0.8,3
		c0,0,0,0,0,0.1C235.2,91.5,236,92,236.8,92z"/>
	<path fill="#E3C7CC" d="M181.8,123.6c0.4,0,0.8-0.1,1.1-0.3c1.1-0.6,1.4-2,0.8-3c-0.6-1.1-2-1.4-3-0.8s-1.4,2-0.8,3
		C180.3,123.2,181,123.6,181.8,123.6z"/>
	<path fill="#E3C7CC" d="M229,96.5c0.4,0,0.8-0.1,1.1-0.3c1-0.6,1.4-2,0.8-3c-0.6-1-2-1.4-3-0.8c-1,0.6-1.4,2-0.8,3
		C227.4,96.1,228.2,96.5,229,96.5z"/>
	<path fill="#E3C7CC" d="M178.3,197.8c-1.2-0.3-2.4,0.4-2.8,1.6c0,0,0,0,0,0c-0.3,1.2,0.4,2.4,1.6,2.8h0.6c1,0,1.9-0.7,2.2-1.7
		C180.2,199.3,179.5,198.2,178.3,197.8z"/>
	<path fill="#E3C7CC" d="M230.8,212c-1.2-0.4-2.4,0.3-2.8,1.5c0,0,0,0.1,0,0.1c-0.3,1.2,0.4,2.4,1.6,2.8c0,0,0,0,0,0h0.5
		c1.3,0.2,2.4-0.7,2.6-1.9c0.2-1.3-0.7-2.4-1.9-2.6V212z"/>
	<path fill="#E3C7CC" d="M203.3,209.3h0.6c1.3,0,2.3-1,2.3-2.3c0-1.3-1-2.3-2.3-2.3c-1,0-1.9,0.6-2.1,1.6
		C201.4,207.6,202.1,208.9,203.3,209.3C203.3,209.3,203.3,209.3,203.3,209.3z"/>
	<path fill="#E3C7CC" d="M212.1,211.7h0.6c1.3,0.2,2.4-0.7,2.5-2c0.2-1.3-0.7-2.4-2-2.5c-1.2-0.3-2.4,0.4-2.8,1.6
		C210.1,210,210.8,211.3,212.1,211.7C212.1,211.7,212.1,211.7,212.1,211.7z"/>
	<path fill="#E3C7CC" d="M185.9,204.6h0.6c1,0,1.9-0.7,2.2-1.7c0.3-1.2-0.4-2.4-1.6-2.8c0,0,0,0,0,0c-1.2-0.3-2.4,0.3-2.7,1.5
		c0,0,0,0,0,0.1C183.9,202.9,184.6,204.2,185.9,204.6C185.8,204.6,185.8,204.6,185.9,204.6z"/>
	<path fill="#E3C7CC" d="M194.6,206.9c0.2,0,0.4,0,0.6,0c1,0,1.9-0.7,2.2-1.7c0.3-1.2-0.4-2.4-1.6-2.8c0,0,0,0,0,0
		c-1.2-0.3-2.4,0.3-2.7,1.5c0,0,0,0,0,0.1C192.6,205.3,193.3,206.5,194.6,206.9C194.5,206.9,194.6,206.9,194.6,206.9z"/>
	<path fill="#E3C7CC" d="M222,209.6c-1.2-0.3-2.5,0.4-2.8,1.6c-0.3,1.2,0.4,2.4,1.6,2.8c0,0,0,0,0,0h0.6c1,0,1.9-0.7,2.2-1.7
		C223.9,211.2,223.2,210,222,209.6z"/>
	<path fill="#E3C7CC" d="M286,144.5c-1.3,0-2.3,1-2.3,2.3c0,1.3,1,2.3,2.3,2.3l0,0c1.3,0,2.3-1,2.3-2.3S287.2,144.5,286,144.5
		L286,144.5z"/>
	<path fill="#E3C7CC" d="M286,153.6c-1.3,0-2.3,1-2.3,2.3s1,2.3,2.3,2.3l0,0c1.3,0,2.3-1,2.3-2.3S287.2,153.6,286,153.6z"/>
	<path fill="#E3C7CC" d="M286,328.1c1.2,0,2.2-0.9,2.3-2.2c0,0,0,0,0,0c0-1.3-1-2.3-2.3-2.3c-1.3,0-2.3,1-2.3,2.3
		C283.7,327.1,284.7,328.1,286,328.1z"/>
	<path fill="#E3C7CC" d="M286,337.1c1.3,0,2.3-1,2.3-2.3c0-1.3-1-2.3-2.3-2.3c-1.3,0-2.3,1-2.3,2.3
		C283.7,336.1,284.7,337.1,286,337.1z"/>
	<path fill="#E3C7CC" d="M286,346.2c1.2,0,2.2-0.9,2.3-2.2c0,0,0,0,0,0c0-1.3-1-2.3-2.2-2.3c-1.3,0-2.3,1-2.3,2.2
		C283.7,345.1,284.7,346.1,286,346.2C285.9,346.2,286,346.2,286,346.2z"/>
	<path fill="#E3C7CC" d="M286,309.9c1.3,0,2.3-1,2.3-2.3c0-1.3-1-2.3-2.3-2.3c-1.2,0-2.2,0.9-2.3,2.2c0,0,0,0,0,0
		c-0.1,1.2,0.9,2.3,2.1,2.3C285.9,309.9,285.9,309.9,286,309.9z"/>
	<path fill="#E3C7CC" d="M286,319c1.2,0,2.2-0.9,2.3-2.2c0,0,0,0,0,0c0-1.3-1-2.3-2.3-2.3c-1.3,0-2.3,1-2.3,2.3
		C283.7,318,284.7,319,286,319z"/>
	<path fill="#E3C7CC" d="M286,300.9L286,300.9c1.3,0,2.3-1,2.3-2.3c0-1.3-1-2.3-2.3-2.3c-1.3,0-2.3,1-2.3,2.3
		C283.7,299.9,284.7,300.9,286,300.9z"/>
	<path fill="#E3C7CC" d="M175.1,286.3c-1.2,0.4-1.8,1.6-1.4,2.8c0,0,0,0,0,0.1c0.3,0.9,1.2,1.6,2.1,1.5h0.7c1.2-0.4,1.8-1.7,1.4-2.9
		C177.6,286.6,176.3,285.9,175.1,286.3z"/>
	<path fill="#E3C7CC" d="M220.9,273.5c-0.4-1.2-1.7-1.8-2.9-1.4c-1.2,0.4-1.8,1.6-1.5,2.8c0,0,0,0.1,0,0.1c0.3,0.9,1.2,1.6,2.2,1.5
		h0.7C220.7,276.1,221.4,274.7,220.9,273.5z"/>
	<path fill="#E3C7CC" d="M228.1,273.5c1.2-0.3,1.9-1.6,1.6-2.8c-0.3-1.2-1.6-1.9-2.8-1.6c-0.1,0-0.1,0-0.2,0.1
		c-1.3,0.2-2.1,1.4-1.9,2.6s1.4,2.1,2.6,1.9C227.6,273.7,227.9,273.7,228.1,273.5z"/>
	<path fill="#E3C7CC" d="M236.2,270.8c0.2,0,0.5,0,0.7,0c1.2-0.4,1.8-1.7,1.4-2.9c-0.4-1.2-1.7-1.8-2.9-1.4
		c-1.3,0.2-2.1,1.4-1.9,2.6c0.2,1.3,1.4,2.1,2.6,1.9V270.8z"/>
	<path fill="#E3C7CC" d="M183.7,283.4c-1.3,0.2-2.1,1.4-1.9,2.6s1.4,2.1,2.6,1.9c0.2,0,0.5,0,0.7,0c1.2-0.4,1.8-1.7,1.4-2.9
		c0,0,0,0,0,0c-0.3-1.2-1.4-2-2.6-1.7C183.8,283.3,183.7,283.3,183.7,283.4z"/>
	<path fill="#E3C7CC" d="M212.3,276.3c-0.4-1.2-1.7-1.8-2.9-1.4c-1.2,0.4-1.8,1.7-1.4,2.9c0.3,0.9,1.2,1.6,2.2,1.5
		c0.2,0,0.5,0,0.7,0c1.2-0.4,1.9-1.6,1.5-2.8C212.4,276.5,212.4,276.4,212.3,276.3z"/>
	<path fill="#E3C7CC" d="M192.3,280.6c-1.3,0.2-2.1,1.4-1.9,2.6c0.2,1.3,1.4,2.1,2.6,1.9h0.7c1.2-0.4,1.8-1.6,1.5-2.8
		c0,0,0-0.1,0-0.1c-0.3-1.2-1.5-2-2.7-1.7C192.4,280.6,192.3,280.6,192.3,280.6z"/>
	<path fill="#E3C7CC" d="M203.7,279.2c-0.3-1.2-1.6-1.9-2.8-1.6c-1.2,0.3-1.9,1.6-1.6,2.8c0,0.1,0,0.1,0.1,0.2
		c0.3,0.9,1.2,1.6,2.2,1.6h0.7c1.2-0.3,1.9-1.6,1.5-2.7C203.8,279.4,203.8,279.3,203.7,279.2z"/>
	<path fill="#E3C7CC" d="M383.3,203c0.3,1,1.2,1.7,2.2,1.7h0.6c1.2-0.3,1.9-1.5,1.6-2.8c0,0,0,0,0,0c-0.3-1.3-1.6-2-2.9-1.7
		c-1.3,0.3-2,1.6-1.7,2.9L383.3,203z"/>
	<path fill="#E3C7CC" d="M374.6,205.3c0.3,1,1.2,1.7,2.2,1.7c0.2,0,0.4,0,0.6,0c1.2-0.3,1.9-1.6,1.6-2.8s-1.6-1.9-2.8-1.6
		C375,203,374.3,204.2,374.6,205.3C374.6,205.4,374.6,205.4,374.6,205.3L374.6,205.3z"/>
	<path fill="#E3C7CC" d="M358.7,207.3c-1.2,0.4-1.9,1.6-1.6,2.8c0.3,1,1.2,1.6,2.2,1.6h0.6c1.3-0.3,2-1.6,1.7-2.9
		C361.2,207.6,359.9,206.9,358.7,207.3L358.7,207.3z"/>
	<path fill="#E3C7CC" d="M367.5,204.9c-1.2,0.3-1.9,1.6-1.6,2.8c0.3,1,1.1,1.7,2.2,1.7h0.6c1.3-0.3,2-1.6,1.7-2.9
		C370,205.3,368.7,204.5,367.5,204.9L367.5,204.9z"/>
	<path fill="#E3C7CC" d="M394.9,202.2c1.2-0.3,1.9-1.6,1.6-2.8c-0.3-1.3-1.6-2-2.9-1.7c-1.3,0.3-2,1.6-1.7,2.9
		c0.3,1,1.2,1.7,2.2,1.7L394.9,202.2z"/>
	<path fill="#E3C7CC" d="M350.5,214.1h0.6c1.2-0.3,1.9-1.5,1.6-2.7c0,0,0,0,0-0.1c-0.3-1.2-1.5-1.9-2.8-1.6c0,0,0,0,0,0
		c-1.2,0.4-1.9,1.6-1.6,2.8C348.7,213.5,349.5,214.1,350.5,214.1z"/>
	<path fill="#E3C7CC" d="M333.7,218.8c1.2-0.4,1.9-1.6,1.6-2.8c-0.3-1.2-1.5-1.9-2.7-1.6c-0.7,0.2-1.2,0.7-1.5,1.3
		c-0.4-0.6-0.9-1.1-1.5-1.4c-0.3-0.2-0.6-0.3-0.9-0.4l-40.8-23.5c-0.6-0.3-1.2-0.5-1.9-0.5h-0.4h-0.4c-0.7,0-1.3,0.2-1.9,0.5
		l-41.1,23.7c-0.6,0.4-1.1,0.8-1.4,1.4c-0.3-0.6-0.8-1-1.4-1.1c-1.2-0.3-2.5,0.4-2.8,1.6c-0.3,1.2,0.4,2.4,1.6,2.8c0,0,0,0,0,0
		c0.2,0,0.4,0,0.6,0c0.4,0,0.8-0.2,1.2-0.4v47.4c0,1.6,0.9,3.1,2.3,3.9l40.8,23.6l0.4,0.3c0.7,0.4,1.5,0.6,2.3,0.6l0,0
		c0.8,0,1.6-0.2,2.3-0.6l0.4-0.3l40.8-23.6c1.4-0.8,2.3-2.3,2.3-3.9v-47.3c0.4,0.3,0.8,0.4,1.3,0.5L333.7,218.8z M281.4,281.7
		l-32.2-18.6v-37l32.2,18.6V281.7z M286,236.8l-32.3-18.7l32.3-18.5l32.3,18.7L286,236.8z M322.7,263.1l-32.2,18.6v-37l32.2-18.6
		V263.1z"/>
	<path fill="#E3C7CC" d="M342.4,216.4c1.3-0.3,2-1.6,1.7-2.9c-0.3-1.3-1.6-2-2.9-1.7c-1.2,0.3-1.9,1.5-1.6,2.7c0,0,0,0,0,0.1
		c0.3,1,1.2,1.7,2.2,1.7L342.4,216.4z"/>
	<path fill="#E3C7CC" d="M389.7,286.3c0.4-1.3-0.3-2.6-1.6-3c-1.3-0.4-2.6,0.3-3,1.6c-0.4,1.2,0.3,2.4,1.4,2.9h0.7
		C388.4,287.9,389.4,287.3,389.7,286.3z"/>
	<path fill="#E3C7CC" d="M381.1,283.4c0.4-1.2-0.2-2.4-1.4-2.8c0,0-0.1,0-0.1,0c-1.2-0.4-2.5,0.3-2.9,1.4c-0.4,1.2,0.3,2.4,1.4,2.9
		c0.2,0,0.5,0,0.7,0C379.9,284.8,380.7,284.2,381.1,283.4z"/>
	<path fill="#E3C7CC" d="M345.3,269.2c-1.2-0.3-2.5,0.4-2.8,1.6c-0.3,1.1,0.3,2.3,1.4,2.7c0.2,0,0.5,0,0.7,0
		c1.3,0.2,2.4-0.7,2.6-1.9s-0.7-2.4-1.9-2.6V269.2z"/>
	<path fill="#E3C7CC" d="M371.1,277.7c-1.2-0.4-2.5,0.3-2.9,1.4c-0.4,1.2,0.3,2.4,1.4,2.9c0.2,0,0.5,0,0.7,0
		c1.3,0.2,2.4-0.7,2.6-1.9c0.2-1.3-0.7-2.4-1.9-2.6L371.1,277.7z"/>
	<path fill="#E3C7CC" d="M398.3,289.2c0.4-1.2-0.2-2.4-1.4-2.8c0,0-0.1,0-0.1,0c-1.2-0.4-2.4,0.2-2.9,1.4c-0.4,1.2,0.3,2.5,1.4,2.9
		h0.7C397.1,290.6,398,290,398.3,289.2z"/>
	<path fill="#E3C7CC" d="M336.7,266.4c-1.3-0.4-2.6,0.3-3,1.6s0.3,2.6,1.6,3c0.2,0,0.5,0,0.7,0c1.3,0.2,2.4-0.7,2.6-1.9
		C338.8,267.7,337.9,266.6,336.7,266.4z"/>
	<path fill="#E3C7CC" d="M353.9,272.1c-1.2-0.4-2.4,0.2-2.8,1.3c0,0,0,0,0,0.1c-0.4,1.2,0.2,2.5,1.4,2.9c0,0,0,0,0.1,0h0.7
		c1.3,0.2,2.4-0.7,2.6-1.9c0.2-1.3-0.7-2.4-1.9-2.6V272.1z"/>
	<path fill="#E3C7CC" d="M362.5,274.9c-1.2-0.4-2.5,0.3-2.9,1.4c-0.4,1.2,0.2,2.4,1.3,2.8c0,0,0,0,0.1,0h0.7c1,0,1.9-0.6,2.2-1.5
		C364.2,276.5,363.6,275.3,362.5,274.9z"/>
</g>
</svg>
