<?xml version="1.0" encoding="utf-8"?>
<!-- Generator: Adobe Illustrator 18.0.0, SVG Export Plug-In . SVG Version: 6.00 Build 0)  -->
<!DOCTYPE svg PUBLIC "-//W3C//DTD SVG 1.1//EN" "http://www.w3.org/Graphics/SVG/1.1/DTD/svg11.dtd">
<svg version="1.1" id="Layer_1" xmlns="http://www.w3.org/2000/svg" xmlns:xlink="http://www.w3.org/1999/xlink" x="0px" y="0px"
	 viewBox="0 0 1104.9 557.9" enable-background="new 0 0 1104.9 557.9" xml:space="preserve">
<text transform="matrix(1 0 0 1 631.4341 74.1915)" fill="#7F7F7F" font-family="'AauxProRegularItalicOSF'" font-size="22.8482" letter-spacing="2">¿Qué es un NFT?</text>
<text transform="matrix(1 0 0 1 335.5913 213.2018)" fill="#7F7F7F" font-family="'MajorMonoDisplay-Regular'" font-size="15.0184" letter-spacing="4">blockchain</text>
<text transform="matrix(1 0 0 1 631.4343 374.0849)"><tspan x="0" y="0" fill="#7F7F7F" font-family="'MajorMonoDisplay-Regular'" font-size="15.0184" letter-spacing="4">descentralized</tspan><tspan x="0" y="26.5" fill="#7F7F7F" font-family="'MajorMonoDisplay-Regular'" font-size="15.0184" letter-spacing="4">organizations</tspan><tspan x="0" y="53" fill="#7F7F7F" font-family="'MajorMonoDisplay-Regular'" font-size="15.0184" letter-spacing="4">(daos)</tspan></text>
<text transform="matrix(1 0 0 1 631.4338 102.6874)"><tspan x="0" y="0" fill="#7F7F7F" font-family="'MajorMonoDisplay-Regular'" font-size="15.0184" letter-spacing="4">non fungible tokens:</tspan><tspan x="0" y="26.5" fill="#7F7F7F" font-family="'MajorMonoDisplay-Regular'" font-size="15.0184" letter-spacing="4">* assets digitales</tspan><tspan x="0" y="53" fill="#7F7F7F" font-family="'MajorMonoDisplay-Regular'" font-size="15.0184" letter-spacing="4">* contratos digitales</tspan><tspan x="0" y="79.5" fill="#7F7F7F" font-family="'MajorMonoDisplay-Regular'" font-size="15.0184" letter-spacing="4">* propiedad intelectual</tspan><tspan x="0" y="106" fill="#7F7F7F" font-family="'MajorMonoDisplay-Regular'" font-size="15.0184" letter-spacing="4">* coleccionables</tspan><tspan x="0" y="132.5" fill="#7F7F7F" font-family="'MajorMonoDisplay-Regular'" font-size="15.0184" letter-spacing="4">* valor mercantil de la imagen</tspan><tspan x="0" y="159" fill="#7F7F7F" font-family="'MajorMonoDisplay-Regular'" font-size="15.0184" letter-spacing="4">* mercado bajo una</tspan><tspan x="0" y="185.5" fill="#7F7F7F" font-family="'MajorMonoDisplay-Regular'" font-size="15.0184" letter-spacing="4">economía “descentralizada”</tspan><tspan x="0" y="212.1" fill="#7F7F7F" font-family="'MajorMonoDisplay-Regular'" font-size="15.0184" letter-spacing="4">* arte, moda, cine...</tspan></text>
<text transform="matrix(1 0 0 1 287.6342 47.7761)" fill="#7F7F7F" font-family="'MajorMonoDisplay-Regular'" font-size="15.0184" letter-spacing="4">cryptocurrencies</text>
<text transform="matrix(1 0 0 1 249.0009 531.2294)" fill="#7F7F7F" font-family="'MajorMonoDisplay-Regular'" font-size="15.0184" letter-spacing="4">assets en videojuegos</text>
<text transform="matrix(1 0 0 1 46.6028 340.1238)" fill="#7F7F7F" font-family="'MajorMonoDisplay-Regular'" font-size="15.0184" letter-spacing="4">metavers0</text>
<text transform="matrix(1 0 0 1 46.6027 162.8082)"><tspan x="0" y="0" fill="#7F7F7F" font-family="'MajorMonoDisplay-Regular'" font-size="15.0184" letter-spacing="4">redes </tspan><tspan x="0" y="26.5" fill="#7F7F7F" font-family="'MajorMonoDisplay-Regular'" font-size="15.0184" letter-spacing="4">sociales</tspan></text>
<g>
	<path fill="#E1C5CA" d="M361.4,150.2l40.8,23.6l0.4,0.3c0.7,0.4,1.5,0.6,2.3,0.6l0,0c0.8,0,1.6-0.2,2.3-0.6l0.4-0.3l40.8-23.6
		c1.4-0.8,2.3-2.3,2.3-3.9V98.8c0-1.6-0.9-3.1-2.3-3.9c-0.3-0.2-0.6-0.3-0.9-0.4L406.7,71c-1.4-0.8-3.1-0.8-4.5,0l-40.7,23.8
		c-1.4,0.8-2.3,2.3-2.3,3.9l0,0v47.5C359.2,147.9,360,149.4,361.4,150.2z M441.8,143.7l-32.2,18.5v-37l32.2-18.6V143.7z M405,80.3
		L437.4,99l-5.2,3L405,117.4l-32.3-18.7L405,80.3z M368.2,106.6l32.3,18.6v37l-32.3-18.5V106.6z"/>
	<path fill="#E1C5CA" d="M448.6,405c-0.3-0.2-0.6-0.3-0.9-0.4l-40.8-23.5c-1.4-0.8-3.1-0.8-4.5,0l-41.1,23.7
		c-1.4,0.8-2.3,2.3-2.3,3.9l0,0v47.6c0,1.6,0.9,3.1,2.3,3.9l40.8,23.6l0.4,0.3c0.7,0.4,1.5,0.6,2.3,0.6l0,0c0.8,0,1.6-0.2,2.3-0.6
		l0.4-0.3l40.8-23.6c1.4-0.8,2.3-2.3,2.3-3.9v-47.5C450.5,407.4,449.8,405.9,448.6,405z M400.5,472.4l-32.2-18.6v-37l32.2,18.6
		V472.4z M405,427.5l-32.3-18.7l32.3-18.5l32.3,18.7L405,427.5z M441.8,453.8l-32.2,18.6v-37l32.2-18.6V453.8z"/>
	<path fill="#E1C5CA" d="M203.1,234l40.8,23.6c0.1,0.1,0.3,0.2,0.4,0.3c0.7,0.4,1.5,0.6,2.3,0.6l0,0c0.8,0,1.6-0.2,2.3-0.6
		c0.1-0.1,0.3-0.2,0.4-0.3L290,234c1.4-0.8,2.3-2.3,2.3-3.9v-47.5c0-1.6-0.9-3.1-2.3-3.9c-0.3-0.2-0.6-0.3-0.9-0.4l-40.8-23.5
		c-1.4-0.8-3.1-0.8-4.5,0l-40.7,23.7c-1.4,0.8-2.3,2.3-2.3,3.9l0,0v47.5C200.9,231.7,201.7,233.2,203.1,234z M283.6,227.5
		l-32.2,18.6v-37l32.2-18.6V227.5z M246.6,164l32.3,18.7l-32.1,18.5l-32.3-18.7L246.6,164z M209.9,190.5L242,209v37l-32.1-18.6
		V190.5z"/>
	<path fill="#E1C5CA" d="M292.6,370.6v-47.5c0-1.6-0.9-3.1-2.3-3.9l-0.9-0.4l-40.8-23.4c-1.4-0.8-3.1-0.8-4.5,0l-41,23.7
		c-1.4,0.8-2.3,2.3-2.3,3.9l0,0v47.5c0,1.6,0.9,3.1,2.3,3.9l40.8,23.6c0.1,0.1,0.3,0.2,0.4,0.3c0.7,0.4,1.5,0.6,2.3,0.6l0,0
		c0.8,0,1.6-0.2,2.3-0.6c0.1-0.1,0.3-0.2,0.4-0.3l40.8-23.6C291.5,373.8,292.5,372.3,292.6,370.6z M242,386.6L209.8,368v-37
		l32.2,18.6V386.6z M246.6,341.7l-32.1-18.7l32.1-18.5l32.3,18.7L246.6,341.7z M283.3,368l-32.2,18.6v-37l32.2-18.6V368z"/>
	<path fill="#E1C5CA" d="M609.2,182.5c0-1.6-0.9-3.1-2.3-3.9l-41.2-23.7c-1.4-0.8-3.1-0.8-4.5,0l-40.8,23.5
		c-0.3,0.1-0.6,0.2-0.9,0.4c-1.4,0.8-2.3,2.3-2.3,3.9v47.5c0,1.6,0.9,3.1,2.3,3.9l40.8,23.6l0.4,0.3c0.7,0.4,1.5,0.6,2.3,0.6l0,0
		c0.8,0,1.6-0.2,2.3-0.6l0.4-0.3l40.8-23.6c1.4-0.8,2.3-2.3,2.3-3.9v-47.5l0,0L609.2,182.5z M558.7,245.9l-32.2-18.6v-36.9
		l32.2,18.6V245.9z M563.2,201.1l-32.1-18.4l32.4-18.7l32.1,18.5L563.2,201.1z M600.1,227.4l-32.1,18.7v-37l32.2-18.6L600.1,227.4z"
		/>
	<path fill="#E1C5CA" d="M606.9,319.1l-41.2-23.7c-1.4-0.8-3.1-0.8-4.5,0l-40.8,23.4c-0.3,0.1-0.6,0.2-0.9,0.4
		c-1.4,0.8-2.3,2.3-2.3,3.9v47.5c0,1.6,0.9,3.1,2.3,3.9l40.8,23.6l0.4,0.3c0.7,0.4,1.5,0.6,2.3,0.6l0,0c0.8,0,1.6-0.2,2.3-0.6
		l0.4-0.3l40.8-23.6c1.4-0.8,2.3-2.3,2.3-3.9v-47.5l0,0C608.8,321.6,608.1,320.1,606.9,319.1z M558.7,386.6L526.5,368v-37l32.2,18.6
		V386.6z M563.2,341.7l-32.1-18.5l32.4-18.7l32.1,18.5L563.2,341.7z M600.1,368l-32.1,18.6v-37l32.2-18.6L600.1,368z"/>
	<path fill="#E1C5CA" d="M492.1,146.6c0.3,0.2,0.7,0.3,1.1,0.3c1.3,0,2.3-1,2.3-2.2c0-1.3-1-2.3-2.2-2.3c-1.3,0-2.3,1-2.3,2.2
		C491,145.5,491.4,146.2,492.1,146.6z"/>
	<path fill="#E1C5CA" d="M468.4,133.1c0.3,0.2,0.7,0.3,1.1,0.3c1.3,0,2.2-1,2.2-2.3s-1-2.2-2.3-2.2c-0.8,0-1.5,0.4-1.9,1.1
		C467,131,467.3,132.4,468.4,133.1C468.4,133,468.4,133,468.4,133.1z"/>
	<path fill="#E1C5CA" d="M523.5,164.7c0.3,0.2,0.7,0.3,1.1,0.3c1.3,0,2.3-1,2.3-2.2s-1-2.3-2.2-2.3s-2.3,1-2.3,2.2
		C522.3,163.6,522.8,164.3,523.5,164.7z"/>
	<path fill="#E1C5CA" d="M507.7,155.7c0.3,0.2,0.7,0.3,1.1,0.3c1.2,0.1,2.3-0.9,2.4-2.2c0.1-1.2-0.9-2.3-2.2-2.4
		c-0.9,0-1.8,0.5-2.2,1.3C506.4,153.8,506.8,155.1,507.7,155.7z"/>
	<path fill="#E1C5CA" d="M484.2,142.1c0.3,0.2,0.7,0.3,1.1,0.3c1.3,0,2.3-1,2.2-2.3c0-0.8-0.4-1.5-1.1-1.9c-1-0.7-2.4-0.5-3.2,0.5
		c-0.7,1-0.5,2.4,0.5,3.2C484,142,484.1,142,484.2,142.1z"/>
	<path fill="#E1C5CA" d="M515.6,160.2c0.3,0.2,0.7,0.3,1.1,0.3c1.3,0,2.3-1,2.2-2.3c0-0.8-0.4-1.5-1.1-1.9c-1-0.7-2.4-0.5-3.2,0.5
		c-0.7,1-0.5,2.4,0.5,3.2C515.3,160.1,515.5,160.2,515.6,160.2z"/>
	<path fill="#E1C5CA" d="M500.1,151.2c0.3,0.2,0.7,0.3,1.1,0.3c0.8,0,1.6-0.4,2-1.1c0.6-1.1,0.2-2.4-0.9-3.1c-1.1-0.5-2.5,0-3,1.1
		C499,149.4,499.3,150.5,500.1,151.2z"/>
	<path fill="#E1C5CA" d="M460.7,128.5c0.3,0.2,0.7,0.3,1.1,0.3c0.8,0,1.6-0.4,1.9-1.1c0.6-1.1,0.3-2.5-0.8-3.1
		c-1.1-0.6-2.5-0.3-3.1,0.8C459.2,126.5,459.6,127.9,460.7,128.5C460.7,128.5,460.7,128.5,460.7,128.5z"/>
	<path fill="#E1C5CA" d="M476.4,137.6c0.3,0.2,0.7,0.3,1.1,0.3c1.3,0,2.3-1,2.2-2.3c0-0.8-0.4-1.5-1.1-1.9c-1-0.7-2.4-0.5-3.2,0.5
		c-0.7,1-0.5,2.4,0.5,3.2C476.1,137.4,476.3,137.5,476.4,137.6z"/>
	<path fill="#E1C5CA" d="M531.3,169.3c0.3,0.2,0.7,0.3,1.1,0.3c1.3,0,2.3-1,2.3-2.2s-1-2.3-2.2-2.3s-2.3,1-2.3,2.2
		C530.2,168.1,530.6,168.9,531.3,169.3z"/>
	<path fill="#E1C5CA" d="M452.9,124c0.3,0.2,0.7,0.3,1.1,0.3c1.3,0,2.3-1,2.3-2.2c0-1.3-1-2.3-2.2-2.3c-1.3,0-2.3,1-2.3,2.2
		C451.7,122.8,452.2,123.6,452.9,124z"/>
	<path fill="#E1C5CA" d="M563.3,274.6c1.3,0,2.3-1,2.3-2.3c0,0,0,0,0,0c0-1.2-1-2.2-2.2-2.2c0,0,0,0,0,0c-1.2,0-2.2,1-2.3,2.2
		C561,273.5,562,274.5,563.3,274.6z"/>
	<path fill="#E1C5CA" d="M563.3,265.5c1.2,0,2.2-0.9,2.3-2.2c0,0,0,0,0,0c0-1.3-1-2.3-2.2-2.3c0,0,0,0,0,0c-1.3,0-2.3,1.1-2.3,2.3
		C561,264.5,562,265.5,563.3,265.5z"/>
	<path fill="#E1C5CA" d="M563.3,292.6c1.3,0,2.3-1,2.3-2.3s-1-2.3-2.3-2.3s-2.3,1-2.3,2.3S562,292.6,563.3,292.6z"/>
	<path fill="#E1C5CA" d="M563.3,283.6c1.3-0.3,2.1-1.5,1.8-2.7c-0.2-0.9-0.9-1.6-1.8-1.8c-1.3,0.3-2.1,1.5-1.8,2.7
		C561.6,282.7,562.3,283.4,563.3,283.6z"/>
	<path fill="#E1C5CA" d="M453,429c-1.1,0.6-1.4,2-0.8,3.1c0.4,0.7,1.1,1.1,1.9,1.1c0.4,0,0.8-0.1,1.1-0.3c1-0.7,1.2-2.2,0.5-3.2
		C455.2,428.9,454,428.6,453,429z"/>
	<path fill="#E1C5CA" d="M507.9,397.3c-1.1,0.6-1.4,2-0.8,3c0,0,0,0,0,0.1c0.4,0.7,1.2,1.1,2,1.1c0.4,0,0.8-0.1,1.1-0.3
		c1.1-0.5,1.6-1.9,1.1-3c-0.5-1.1-1.9-1.6-3-1.1C508.2,397.1,508,397.2,507.9,397.3z"/>
	<path fill="#E1C5CA" d="M460.9,424.5c-1.1,0.6-1.4,2-0.8,3.1c0.4,0.7,1.1,1.1,1.9,1.1c0.4,0,0.8-0.1,1.1-0.3c1-0.7,1.2-2.2,0.5-3.2
		C463,424.3,461.9,424,460.9,424.5z"/>
	<path fill="#E1C5CA" d="M500.1,401.8c-1.1,0.6-1.4,2-0.8,3.1c0.4,0.7,1.1,1.1,1.9,1.1c0.4,0,0.8-0.1,1.1-0.3c1.1-0.5,1.6-1.9,1.1-3
		c-0.5-1.1-1.9-1.6-3-1.1C500.4,401.7,500.3,401.8,500.1,401.8z"/>
	<path fill="#E1C5CA" d="M523.6,388.3c-1.1,0.6-1.5,2-0.9,3.1c0.4,0.7,1.2,1.1,2,1.1c0.4,0,0.8-0.1,1.1-0.3c1.1-0.5,1.6-1.9,1.1-3
		c-0.5-1.1-1.9-1.6-3-1.1C523.9,388.1,523.8,388.2,523.6,388.3z"/>
	<path fill="#E1C5CA" d="M515.8,392.8c-1.1,0.6-1.4,2-0.8,3.1c0.4,0.7,1.1,1.1,1.9,1.1c0.4,0,0.8-0.1,1.1-0.3c1.1-0.6,1.5-2,0.8-3.1
		C518.2,392.5,516.9,392.2,515.8,392.8z"/>
	<path fill="#E1C5CA" d="M484.4,410.9c-1.1,0.6-1.4,2-0.8,3.1c0.4,0.7,1.1,1.1,1.9,1.1c0.4,0,0.8-0.1,1.1-0.3c1-0.7,1.2-2.2,0.5-3.2
		C486.6,410.8,485.4,410.5,484.4,410.9z"/>
	<path fill="#E1C5CA" d="M492.3,406.4c-1.1,0.6-1.4,2-0.8,3.1c0.4,0.7,1.1,1.1,1.9,1.1c0.4,0,0.8-0.1,1.1-0.3c1-0.7,1.2-2.2,0.5-3.2
		C494.4,406.2,493.2,405.9,492.3,406.4z"/>
	<path fill="#E1C5CA" d="M476.6,415.4c-1.1,0.6-1.5,1.9-0.9,3c0,0,0,0,0,0.1c0.4,0.7,1.2,1.1,2,1.1c0.4,0,0.8-0.1,1.1-0.3
		c1.1-0.6,1.4-2,0.8-3.1C479,415.2,477.7,414.8,476.6,415.4z"/>
	<path fill="#E1C5CA" d="M468.7,420c-1.1,0.6-1.4,2-0.8,3.1c0.4,0.7,1.1,1.1,1.9,1.1c0.4,0,0.8-0.1,1.1-0.3c1.1-0.5,1.6-1.9,1.1-3
		c-0.5-1.1-1.9-1.6-3-1.1C469,419.8,468.8,419.9,468.7,420z"/>
	<path fill="#E1C5CA" d="M531.5,383.7c-1.1,0.6-1.4,2-0.8,3.1c0.4,0.7,1.1,1.1,1.9,1.1c0.4,0,0.8-0.1,1.1-0.3c1-0.7,1.2-2.2,0.5-3.2
		C533.6,383.6,532.4,383.3,531.5,383.7z"/>
	<path fill="#E1C5CA" d="M309.9,401.8c-1-0.7-2.4-0.5-3.2,0.5c-0.7,1-0.5,2.4,0.5,3.2c0.1,0.1,0.3,0.2,0.4,0.2
		c0.3,0.2,0.7,0.3,1.1,0.3c1.3,0,2.3-1,2.3-2.2C311.1,403,310.6,402.3,309.9,401.8z"/>
	<path fill="#E1C5CA" d="M317.9,406.4c-1-0.7-2.4-0.5-3.2,0.5c-0.7,1-0.5,2.4,0.5,3.2c0.1,0.1,0.3,0.2,0.4,0.2
		c0.3,0.2,0.7,0.3,1.1,0.3c1.3,0,2.3-1,2.2-2.3C319,407.5,318.6,406.8,317.9,406.4z"/>
	<path fill="#E1C5CA" d="M278.7,383.7c-1-0.7-2.4-0.5-3.2,0.5c-0.7,1-0.5,2.4,0.5,3.2c0.1,0.1,0.3,0.2,0.4,0.2
		c0.3,0.2,0.7,0.3,1.1,0.3c1.3,0,2.3-1,2.2-2.3C279.8,384.9,279.4,384.1,278.7,383.7z"/>
	<path fill="#E1C5CA" d="M325.8,410.9c-1-0.7-2.4-0.5-3.2,0.5c-0.7,1-0.5,2.4,0.5,3.2c0.1,0.1,0.3,0.2,0.4,0.2
		c0.3,0.2,0.7,0.3,1.1,0.3c1.3,0,2.3-1,2.2-2.3C326.9,412,326.4,411.3,325.8,410.9z"/>
	<path fill="#E1C5CA" d="M302.2,397.3c-1-0.7-2.4-0.5-3.2,0.5c-0.7,1-0.5,2.4,0.5,3.2c0.1,0.1,0.3,0.2,0.4,0.2
		c0.3,0.2,0.7,0.3,1.1,0.3c0.8,0,1.6-0.4,2-1.1C303.7,399.3,303.3,398,302.2,397.3C302.3,397.3,302.2,397.3,302.2,397.3z"/>
	<path fill="#E1C5CA" d="M294.4,392.8c-1-0.7-2.4-0.5-3.2,0.5c-0.7,1-0.5,2.4,0.5,3.2c0.1,0.1,0.3,0.2,0.4,0.2
		c0.3,0.2,0.7,0.3,1.1,0.3c1.3,0,2.3-1,2.2-2.3C295.5,393.9,295.1,393.2,294.4,392.8z"/>
	<path fill="#E1C5CA" d="M333.6,415.4c-1-0.7-2.4-0.5-3.2,0.5c-0.7,1-0.5,2.4,0.5,3.2c0.1,0.1,0.3,0.2,0.4,0.2
		c0.3,0.2,0.7,0.3,1.1,0.3c1.3,0,2.3-1,2.2-2.3C334.7,416.6,334.3,415.8,333.6,415.4z"/>
	<path fill="#E1C5CA" d="M286.5,388.3c-1-0.7-2.4-0.5-3.2,0.5c-0.7,1-0.5,2.4,0.5,3.2c0.1,0.1,0.3,0.2,0.4,0.2
		c0.3,0.2,0.7,0.3,1.1,0.3c1.3,0,2.3-1,2.2-2.3C287.6,389.4,287.2,388.7,286.5,388.3z"/>
	<path fill="#E1C5CA" d="M349.3,424.5c-1-0.7-2.4-0.5-3.2,0.5c-0.7,1-0.5,2.4,0.5,3.2c0.1,0.1,0.3,0.2,0.4,0.2
		c0.3,0.2,0.7,0.3,1.1,0.3c1.3,0,2.3-1,2.2-2.3C350.4,425.6,350,424.9,349.3,424.5z"/>
	<path fill="#E1C5CA" d="M341.6,420c-1-0.7-2.4-0.5-3.2,0.5c-0.7,1-0.5,2.4,0.5,3.2c0.1,0.1,0.3,0.2,0.4,0.2
		c0.3,0.2,0.7,0.3,1.1,0.3c1.3,0,2.3-1,2.2-2.3C342.7,421.1,342.3,420.4,341.6,420z"/>
	<path fill="#E1C5CA" d="M357.1,429c-1-0.7-2.4-0.5-3.2,0.5c-0.7,1-0.5,2.4,0.5,3.2c0.1,0.1,0.3,0.2,0.4,0.2
		c0.3,0.2,0.7,0.3,1.1,0.3c1.3,0,2.3-1,2.2-2.3C358.2,430.1,357.8,429.4,357.1,429z"/>
	<circle fill="#E1C5CA" cx="246.7" cy="281.1" r="2.3"/>
	<circle fill="#E1C5CA" cx="246.7" cy="263" r="2.3"/>
	<circle fill="#E1C5CA" cx="246.7" cy="290.2" r="2.3"/>
	<circle fill="#E1C5CA" cx="246.7" cy="272.1" r="2.3"/>
	<path fill="#E1C5CA" d="M277.5,169.6c0.4,0,0.8-0.1,1.2-0.3c1.1-0.6,1.4-2,0.8-3.1c-0.6-1.1-2-1.5-3.1-0.8c-1.1,0.6-1.5,2-0.8,3.1
		C276,169.2,276.7,169.6,277.5,169.6z"/>
	<path fill="#E1C5CA" d="M285.4,165.1c0.4,0,0.8-0.1,1.1-0.3c1.1-0.6,1.5-2,0.8-3.1c-0.6-1.1-2-1.5-3.1-0.8c-1.1,0.6-1.4,2-0.8,3.1
		C283.8,164.6,284.6,165.1,285.4,165.1z"/>
	<path fill="#E1C5CA" d="M332.6,138c0.4,0,0.8-0.1,1.1-0.3c1.1-0.6,1.4-2,0.8-3.1c-0.6-1.1-2-1.4-3.1-0.9c-1.1,0.6-1.4,2-0.9,3.1
		C331,137.6,331.8,138,332.6,138z"/>
	<path fill="#E1C5CA" d="M316.7,147c0.4,0,0.8-0.1,1.1-0.3c1.1-0.6,1.4-2,0.8-3.1c-0.6-1.1-2-1.5-3.1-0.8c-1.1,0.6-1.5,2-0.8,3.1
		C315.1,146.6,315.9,147,316.7,147z"/>
	<path fill="#E1C5CA" d="M340.2,133.5c0.4,0,0.8-0.1,1.1-0.3c1.1-0.5,1.6-1.9,1.1-3c-0.5-1.1-1.9-1.6-3-1.1
		c-0.1,0.1-0.3,0.1-0.4,0.2c-1.1,0.6-1.5,1.9-0.9,3c0,0,0,0,0,0.1C338.6,133,339.4,133.5,340.2,133.5z"/>
	<path fill="#E1C5CA" d="M324.5,142.5c0.4,0,0.8-0.1,1.1-0.3c1.1-0.6,1.4-2,0.8-3.1c-0.6-1.1-2-1.4-3.1-0.8c-1.1,0.6-1.4,2-0.8,3
		C323,142,323.7,142.5,324.5,142.5z"/>
	<path fill="#E1C5CA" d="M308.9,151.5c0.4,0,0.8-0.1,1.1-0.3c1.1-0.6,1.4-2,0.8-3s-2-1.4-3-0.8c-1.1,0.6-1.4,2-0.8,3
		C307.4,151.1,308.1,151.5,308.9,151.5z"/>
	<path fill="#E1C5CA" d="M293.2,160.6c0.4,0,0.8-0.1,1.1-0.3c1.1-0.6,1.4-2,0.9-3.1c-0.6-1.1-2-1.4-3.1-0.9c-1.1,0.6-1.4,2-0.8,3.1
		C291.7,160.1,292.4,160.6,293.2,160.6z"/>
	<path fill="#E1C5CA" d="M355.9,124.4c0.4,0,0.8-0.1,1.1-0.3c1.1-0.6,1.4-2,0.9-3.1c-0.6-1.1-2-1.4-3.1-0.8c-1.1,0.6-1.4,2-0.8,3
		c0,0,0,0,0,0.1C354.3,124,355,124.4,355.9,124.4z"/>
	<path fill="#E1C5CA" d="M300.9,156.1c0.4,0,0.8-0.1,1.1-0.3c1.1-0.6,1.4-2,0.8-3c-0.6-1.1-2-1.4-3-0.8c-1.1,0.6-1.4,2-0.8,3
		C299.4,155.6,300.1,156.1,300.9,156.1z"/>
	<path fill="#E1C5CA" d="M348,128.9c0.4,0,0.8-0.1,1.1-0.3c1-0.6,1.4-2,0.8-3s-2-1.4-3-0.8c-1,0.6-1.4,2-0.8,3
		C346.5,128.5,347.2,129,348,128.9z"/>
	<path fill="#E1C5CA" d="M297.4,230.3c-1.2-0.3-2.4,0.4-2.8,1.6c0,0,0,0,0,0c-0.3,1.2,0.4,2.4,1.6,2.8h0.6c1,0,1.9-0.7,2.2-1.7
		C299.3,231.8,298.5,230.6,297.4,230.3z"/>
	<path fill="#E1C5CA" d="M349.8,244.5c-1.2-0.4-2.4,0.3-2.8,1.5c0,0,0,0.1,0,0.1c-0.3,1.2,0.4,2.4,1.6,2.8c0,0,0,0,0,0h0.5
		c1.3,0.2,2.4-0.7,2.6-1.9s-0.7-2.4-1.9-2.6V244.5z"/>
	<path fill="#E1C5CA" d="M322.4,241.8h0.6c1.3,0,2.3-1,2.3-2.3c0-1.3-1-2.3-2.3-2.3c-1,0-1.9,0.6-2.1,1.6
		C320.4,240.1,321.1,241.4,322.4,241.8C322.4,241.8,322.4,241.8,322.4,241.8z"/>
	<path fill="#E1C5CA" d="M331.1,244.1h0.6c1.3,0.2,2.4-0.7,2.5-2c0.2-1.3-0.7-2.4-2-2.5c-1.2-0.3-2.4,0.4-2.8,1.6
		C329.2,242.4,329.9,243.7,331.1,244.1C331.1,244.1,331.1,244.1,331.1,244.1z"/>
	<path fill="#E1C5CA" d="M304.9,237h0.6c1,0,1.9-0.7,2.2-1.7c0.3-1.2-0.4-2.4-1.6-2.8c0,0,0,0,0,0c-1.2-0.3-2.4,0.3-2.7,1.5
		c0,0,0,0,0,0.1C303,235.4,303.6,236.6,304.9,237C304.9,237,304.9,237,304.9,237z"/>
	<path fill="#E1C5CA" d="M313.7,239.4c0.2,0,0.4,0,0.6,0c1,0,1.9-0.7,2.2-1.7c0.3-1.2-0.4-2.4-1.6-2.8c0,0,0,0,0,0
		c-1.2-0.3-2.4,0.3-2.7,1.5c0,0,0,0,0,0.1C311.7,237.7,312.4,239,313.7,239.4C313.6,239.4,313.6,239.4,313.7,239.4z"/>
	<path fill="#E1C5CA" d="M341.1,242.1c-1.2-0.3-2.5,0.4-2.8,1.6c-0.3,1.2,0.4,2.4,1.6,2.8c0,0,0,0,0,0h0.6c1,0,1.9-0.7,2.2-1.7
		C342.9,243.6,342.2,242.5,341.1,242.1z"/>
	<path fill="#E1C5CA" d="M405,177c-1.3,0-2.3,1-2.3,2.3c0,1.3,1,2.3,2.3,2.3l0,0c1.3,0,2.3-1,2.3-2.3C407.3,178,406.2,177,405,177
		L405,177z"/>
	<path fill="#E1C5CA" d="M405,186c-1.3,0-2.3,1-2.3,2.3s1,2.3,2.3,2.3l0,0c1.3,0,2.3-1,2.3-2.3S406.3,186,405,186z"/>
	<path fill="#E1C5CA" d="M405,360.5c1.2,0,2.2-0.9,2.3-2.2c0,0,0,0,0,0c0-1.3-1-2.3-2.3-2.3c-1.3,0-2.3,1-2.3,2.3
		C402.8,359.5,403.8,360.5,405,360.5z"/>
	<path fill="#E1C5CA" d="M405,369.6c1.3,0,2.3-1,2.3-2.3s-1-2.3-2.3-2.3c-1.3,0-2.3,1-2.3,2.3S403.8,369.6,405,369.6z"/>
	<path fill="#E1C5CA" d="M405,378.6c1.2,0,2.2-0.9,2.3-2.2c0,0,0,0,0,0c0-1.3-1-2.3-2.2-2.3c-1.3,0-2.3,1-2.3,2.2
		S403.7,378.6,405,378.6C405,378.6,405,378.6,405,378.6z"/>
	<path fill="#E1C5CA" d="M405,342.4c1.3,0,2.3-1,2.3-2.3c0-1.3-1-2.3-2.3-2.3c-1.2,0-2.2,0.9-2.3,2.2c0,0,0,0,0,0
		c-0.1,1.2,0.9,2.3,2.1,2.3C404.9,342.4,405,342.4,405,342.4z"/>
	<path fill="#E1C5CA" d="M405,351.4c1.2,0,2.2-0.9,2.3-2.2c0,0,0,0,0,0c0-1.3-1-2.3-2.3-2.3c-1.3,0-2.3,1-2.3,2.3
		C402.8,350.5,403.8,351.4,405,351.4z"/>
	<path fill="#E1C5CA" d="M405,333.3L405,333.3c1.3,0,2.3-1,2.3-2.3s-1-2.3-2.3-2.3c-1.3,0-2.3,1-2.3,2.3S403.8,333.3,405,333.3z"/>
	<path fill="#E1C5CA" d="M294.1,318.8c-1.2,0.4-1.8,1.6-1.4,2.8c0,0,0,0,0,0.1c0.3,0.9,1.2,1.6,2.1,1.5h0.7c1.2-0.4,1.8-1.7,1.4-2.9
		C296.7,319,295.4,318.4,294.1,318.8z"/>
	<path fill="#E1C5CA" d="M340,305.9c-0.4-1.2-1.7-1.8-2.9-1.4c-1.2,0.4-1.8,1.6-1.5,2.8c0,0,0,0.1,0,0.1c0.3,0.9,1.2,1.6,2.2,1.5
		h0.7C339.8,308.5,340.4,307.2,340,305.9z"/>
	<path fill="#E1C5CA" d="M347.2,306c1.2-0.3,1.9-1.6,1.6-2.8c-0.3-1.2-1.6-1.9-2.8-1.6c-0.1,0-0.1,0-0.2,0.1
		c-1.3,0.2-2.1,1.4-1.9,2.6c0.2,1.3,1.4,2.1,2.6,1.9C346.7,306.2,346.9,306.1,347.2,306z"/>
	<path fill="#E1C5CA" d="M355.2,303.2c0.2,0,0.5,0,0.7,0c1.2-0.4,1.8-1.7,1.4-2.9c-0.4-1.2-1.7-1.8-2.9-1.4
		c-1.3,0.2-2.1,1.4-1.9,2.6c0.2,1.3,1.4,2.1,2.6,1.9V303.2z"/>
	<path fill="#E1C5CA" d="M302.7,315.8c-1.3,0.2-2.1,1.4-1.9,2.6c0.2,1.3,1.4,2.1,2.6,1.9c0.2,0,0.5,0,0.7,0c1.2-0.4,1.8-1.7,1.4-2.9
		c0,0,0,0,0,0c-0.3-1.2-1.4-2-2.6-1.7C302.9,315.8,302.8,315.8,302.7,315.8z"/>
	<path fill="#E1C5CA" d="M331.4,308.8c-0.4-1.2-1.7-1.8-2.9-1.4c-1.2,0.4-1.8,1.7-1.4,2.9c0.3,0.9,1.2,1.6,2.2,1.5
		c0.2,0,0.5,0,0.7,0c1.2-0.4,1.9-1.6,1.5-2.8C331.5,308.9,331.4,308.8,331.4,308.8z"/>
	<path fill="#E1C5CA" d="M311.4,313c-1.3,0.2-2.1,1.4-1.9,2.6c0.2,1.3,1.4,2.1,2.6,1.9h0.7c1.2-0.4,1.8-1.6,1.5-2.8c0,0,0-0.1,0-0.1
		c-0.3-1.2-1.5-2-2.7-1.7C311.5,313,311.4,313,311.4,313z"/>
	<path fill="#E1C5CA" d="M322.8,311.6c-0.3-1.2-1.6-1.9-2.8-1.6c-1.2,0.3-1.9,1.6-1.6,2.8c0,0.1,0,0.1,0.1,0.2
		c0.3,0.9,1.2,1.6,2.2,1.6h0.7c1.2-0.3,1.9-1.6,1.5-2.7C322.9,311.8,322.8,311.7,322.8,311.6z"/>
	<path fill="#E1C5CA" d="M502.4,235.4c0.3,1,1.2,1.7,2.2,1.7h0.6c1.2-0.3,1.9-1.5,1.6-2.8c0,0,0,0,0,0c-0.3-1.3-1.6-2-2.9-1.7
		c-1.3,0.3-2,1.6-1.7,2.9L502.4,235.4z"/>
	<path fill="#E1C5CA" d="M493.7,237.8c0.3,1,1.2,1.7,2.2,1.7c0.2,0,0.4,0,0.6,0c1.2-0.3,1.9-1.6,1.6-2.8s-1.6-1.9-2.8-1.6
		C494.1,235.4,493.3,236.6,493.7,237.8C493.7,237.9,493.7,237.9,493.7,237.8L493.7,237.8z"/>
	<path fill="#E1C5CA" d="M477.8,239.7c-1.2,0.4-1.9,1.6-1.6,2.8c0.3,1,1.2,1.6,2.2,1.6h0.6c1.3-0.3,2-1.6,1.7-2.9
		C480.3,240.1,479,239.3,477.8,239.7L477.8,239.7z"/>
	<path fill="#E1C5CA" d="M486.5,237.4c-1.2,0.3-1.9,1.6-1.6,2.8c0.3,1,1.1,1.7,2.2,1.7h0.6c1.3-0.3,2-1.6,1.7-2.9
		C489.1,237.7,487.8,237,486.5,237.4L486.5,237.4z"/>
	<path fill="#E1C5CA" d="M513.9,234.7c1.2-0.3,1.9-1.6,1.6-2.8c-0.3-1.3-1.6-2-2.9-1.7c-1.3,0.3-2,1.6-1.7,2.9
		c0.3,1,1.2,1.7,2.2,1.7L513.9,234.7z"/>
	<path fill="#E1C5CA" d="M469.6,246.6h0.6c1.2-0.3,1.9-1.5,1.6-2.7c0,0,0,0,0-0.1c-0.3-1.2-1.5-1.9-2.8-1.6c0,0,0,0,0,0
		c-1.2,0.4-1.9,1.6-1.6,2.8C467.7,245.9,468.6,246.6,469.6,246.6z"/>
	<path fill="#E1C5CA" d="M452.7,251.2c1.2-0.4,1.9-1.6,1.6-2.8c-0.3-1.2-1.5-1.9-2.7-1.6c-0.7,0.2-1.2,0.7-1.5,1.3
		c-0.4-0.6-0.9-1.1-1.5-1.4c-0.3-0.2-0.6-0.3-0.9-0.4l-40.8-23.5c-0.6-0.3-1.2-0.5-1.9-0.5h-0.4h-0.4c-0.7,0-1.3,0.2-1.9,0.5
		l-41.1,23.7c-0.6,0.4-1.1,0.8-1.4,1.4c-0.3-0.6-0.8-1-1.4-1.1c-1.2-0.3-2.5,0.4-2.8,1.6c-0.3,1.2,0.4,2.4,1.6,2.8c0,0,0,0,0,0
		c0.2,0,0.4,0,0.6,0c0.4,0,0.8-0.2,1.2-0.4v47.4c0,1.6,0.9,3.1,2.3,3.9l40.8,23.6l0.4,0.3c0.7,0.4,1.5,0.6,2.3,0.6l0,0
		c0.8,0,1.6-0.2,2.3-0.6l0.4-0.3l40.8-23.6c1.4-0.8,2.3-2.3,2.3-3.9v-47.3c0.4,0.3,0.8,0.4,1.3,0.5L452.7,251.2z M400.5,314.1
		l-32.2-18.6v-37l32.2,18.6V314.1z M405,269.2l-32.3-18.7L405,232l32.3,18.7L405,269.2z M441.8,295.5l-32.2,18.6v-37l32.2-18.6
		V295.5z"/>
	<path fill="#E1C5CA" d="M461.5,248.8c1.3-0.3,2-1.6,1.7-2.9c-0.3-1.3-1.6-2-2.9-1.7c-1.2,0.3-1.9,1.5-1.6,2.7c0,0,0,0,0,0.1
		c0.3,1,1.2,1.7,2.2,1.7L461.5,248.8z"/>
	<path fill="#E1C5CA" d="M508.8,318.8c0.4-1.3-0.3-2.6-1.6-3c-1.3-0.4-2.6,0.3-3,1.6c-0.4,1.2,0.3,2.4,1.4,2.9h0.7
		C507.5,320.3,508.4,319.7,508.8,318.8z"/>
	<path fill="#E1C5CA" d="M500.1,315.8c0.4-1.2-0.2-2.4-1.4-2.8c0,0-0.1,0-0.1,0c-1.2-0.4-2.5,0.3-2.9,1.4c-0.4,1.2,0.3,2.4,1.4,2.9
		c0.2,0,0.5,0,0.7,0C498.9,317.3,499.8,316.7,500.1,315.8z"/>
	<path fill="#E1C5CA" d="M464.4,301.7c-1.2-0.3-2.5,0.4-2.8,1.6c-0.3,1.1,0.3,2.3,1.4,2.7c0.2,0,0.5,0,0.7,0
		c1.3,0.2,2.4-0.7,2.6-1.9c0.2-1.3-0.7-2.4-1.9-2.6V301.7z"/>
	<path fill="#E1C5CA" d="M490.2,310.2c-1.2-0.4-2.5,0.3-2.9,1.4c-0.4,1.2,0.3,2.4,1.4,2.9c0.2,0,0.5,0,0.7,0
		c1.3,0.2,2.4-0.7,2.6-1.9c0.2-1.3-0.7-2.4-1.9-2.6L490.2,310.2z"/>
	<path fill="#E1C5CA" d="M517.4,321.6c0.4-1.2-0.2-2.4-1.4-2.8c0,0-0.1,0-0.1,0c-1.2-0.4-2.4,0.2-2.9,1.4c-0.4,1.2,0.3,2.5,1.4,2.9
		h0.7C516.2,323.1,517.1,322.5,517.4,321.6z"/>
	<path fill="#E1C5CA" d="M455.8,298.8c-1.3-0.4-2.6,0.3-3,1.6c-0.4,1.3,0.3,2.6,1.6,3c0.2,0,0.5,0,0.7,0c1.3,0.2,2.4-0.7,2.6-1.9
		C457.9,300.2,457,299,455.8,298.8z"/>
	<path fill="#E1C5CA" d="M473,304.5c-1.2-0.4-2.4,0.2-2.8,1.3c0,0,0,0,0,0.1c-0.4,1.2,0.2,2.5,1.4,2.9c0,0,0,0,0.1,0h0.7
		c1.3,0.2,2.4-0.7,2.6-1.9c0.2-1.3-0.7-2.4-1.9-2.6V304.5z"/>
	<path fill="#E1C5CA" d="M481.6,307.3c-1.2-0.4-2.5,0.3-2.9,1.4c-0.4,1.2,0.2,2.4,1.3,2.8c0,0,0,0,0.1,0h0.7c1,0,1.9-0.6,2.2-1.5
		C483.3,308.9,482.7,307.8,481.6,307.3z"/>
</g>
</svg>
