<?xml version="1.0" encoding="utf-8"?>
<!-- Generator: Adobe Illustrator 18.0.0, SVG Export Plug-In . SVG Version: 6.00 Build 0)  -->
<!DOCTYPE svg PUBLIC "-//W3C//DTD SVG 1.1//EN" "http://www.w3.org/Graphics/SVG/1.1/DTD/svg11.dtd">
<svg version="1.1" id="Layer_1" xmlns="http://www.w3.org/2000/svg" xmlns:xlink="http://www.w3.org/1999/xlink" x="0px" y="0px"
	 viewBox="0 0 1113.7 709.8" enable-background="new 0 0 1113.7 709.8" xml:space="preserve">
<polyline fill="none" stroke="#C2C0C0" stroke-width="0.7901" stroke-miterlimit="10" points="116.5,71.2 116.5,545.4 116.5,524.9 
	89.7,524.9 1068.3,524.9 "/>
<g>
	<line fill="#94CC7E" x1="133.5" y1="119.6" x2="1050.3" y2="119.6"/>
	<line fill="#94CC7E" x1="133.5" y1="163.8" x2="1050.3" y2="163.8"/>
	<line fill="#94CC7E" x1="133.5" y1="207.9" x2="1050.3" y2="207.9"/>
	<line fill="#94CC7E" x1="133.5" y1="252.1" x2="1050.3" y2="252.1"/>
	<line fill="#94CC7E" x1="133.5" y1="296.2" x2="1050.3" y2="296.2"/>
	<line fill="#94CC7E" x1="133.5" y1="340.4" x2="1050.3" y2="340.4"/>
	<line fill="#94CC7E" x1="133.5" y1="384.6" x2="1050.3" y2="384.6"/>
	<line fill="#94CC7E" x1="133.5" y1="428.7" x2="1050.3" y2="428.7"/>
	<line fill="#94CC7E" x1="133.5" y1="472.9" x2="1050.3" y2="472.9"/>
</g>
<text transform="matrix(1 0 0 1 153.5041 594.8544)" font-family="'AauxProBold'" font-size="18">2021</text>
<text transform="matrix(1 0 0 1 901.88 594.8547)" font-family="'AauxProBold'" font-size="18">2022</text>
<text transform="matrix(1 0 0 1 838.6075 557.8945)" fill="#676A92" font-family="'MajorMonoDisplay-Regular'" font-size="12">merge</text>
<text transform="matrix(1 0 0 1 142.1931 557.8948)" fill="#474E82" font-family="'MajorMonoDisplay-Regular'" font-size="12">everyday</text>
<text transform="matrix(1 0 0 1 69.6232 676.8757)" font-family="'MajorMonoDisplay-Regular'" font-size="11">cryptopunks</text>
<text transform="matrix(1 0 0 1 958.9423 557.8946)"><tspan x="0" y="0" fill="#474E82" font-family="'MajorMonoDisplay-Regular'" font-size="12">the</tspan><tspan x="23.7" y="0" fill="#474E82" font-family="'MajorMonoDisplay-Regular'" font-size="12" letter-spacing="-1"> </tspan><tspan x="31.2" y="0" fill="#474E82" font-family="'MajorMonoDisplay-Regular'" font-size="12">clock</tspan></text>
<text transform="matrix(1 0 0 1 34.7189 642.1091)" font-family="'AauxProBold'" font-size="12">Creadores</text>
<text transform="matrix(1 0 0 1 62.7805 557.8939)" font-family="'AauxProBold'" font-size="12">NFT</text>
<text transform="matrix(1 0 0 1 34.719 34.4719)"><tspan x="0" y="0" font-family="'AauxProBold'" font-size="13">Valor por</tspan><tspan x="0" y="15.6" font-family="'AauxProBold'" font-size="13">pieza en </tspan><tspan x="0" y="31.2" font-family="'AauxProBold'" font-size="13">dólares</tspan></text>
<text transform="matrix(1 0 0 1 45.6666 121.6173)" font-family="'AauxProBold'" font-size="13">$ 90 m</text>
<text transform="matrix(1 0 0 1 47.5077 475.1086)" font-family="'AauxProBold'" font-size="13">$ 10 m</text>
<text transform="matrix(1 0 0 1 46.8939 430.9227)" font-family="'AauxProBold'" font-size="13">$ 20 m</text>
<text transform="matrix(1 0 0 1 46.2806 386.7361)" font-family="'AauxProBold'" font-size="13">$ 30 m</text>
<text transform="matrix(1 0 0 1 45.6667 342.5494)" font-family="'AauxProBold'" font-size="13">$ 40 m</text>
<text transform="matrix(1 0 0 1 45.0529 298.3629)" font-family="'AauxProBold'" font-size="13">$ 50 m</text>
<text transform="matrix(1 0 0 1 45.6665 254.1765)" font-family="'AauxProBold'" font-size="13">$ 60 m</text>
<text transform="matrix(1 0 0 1 45.6664 209.9901)" font-family="'AauxProBold'" font-size="13">$ 70 m</text>
<text transform="matrix(1 0 0 1 45.6666 165.8038)" font-family="'AauxProBold'" font-size="13">$ 80 m</text>
<g>
	<text transform="matrix(1 0 0 1 899.8802 557.8946)" fill="#FFDEA4" font-family="'MajorMonoDisplay-Regular'" font-size="12">#5822</text>
</g>
<rect x="908.5" y="455.1" fill="#FFDEA4" width="23" height="69.5"/>
<g>
	<text transform="matrix(1 0 0 1 221.8386 557.8941)" fill="#FFDEA4" font-family="'MajorMonoDisplay-Regular'" font-size="12">#5822</text>
</g>
<rect x="232.4" y="455.1" fill="#FFDEA4" width="23" height="69.5"/>
<g>
	<text transform="matrix(1 0 0 1 289.1753 557.8939)" fill="#FFDEA4" font-family="'MajorMonoDisplay-Regular'" font-size="12">#7804</text>
</g>
<rect x="300.7" y="480" fill="#FFDEA4" width="23" height="45.4"/>
<g>
	<text transform="matrix(1 0 0 1 764.0129 543.4949)"><tspan x="0" y="0" fill="#DFC9CD" font-family="'MajorMonoDisplay-Regular'" font-size="12">right</tspan><tspan x="0" y="14.4" fill="#DFC9CD" font-family="'MajorMonoDisplay-Regular'" font-size="12">click</tspan><tspan x="4.1" y="28.8" fill="#DFC9CD" font-family="'MajorMonoDisplay-Regular'" font-size="12">save</tspan></text>
</g>
<rect x="773.5" y="479.6" fill="#DFC9CD" width="23" height="45.4"/>
<g>
	<text transform="matrix(1 0 0 1 354.1484 557.8937)" fill="#FFDEA4" font-family="'MajorMonoDisplay-Regular'" font-size="12">#3100</text>
</g>
<rect x="367.2" y="490.7" fill="#FFDEA4" width="23" height="34.5"/>
<g>
	<text transform="matrix(1 0 0 1 502.5252 550.6945)"><tspan x="0" y="0" fill="#CCDFC1" font-family="'MajorMonoDisplay-Regular'" font-size="12">www</tspan><tspan x="0" y="14.4" fill="#CCDFC1" font-family="'MajorMonoDisplay-Regular'" font-size="12">code</tspan></text>
</g>
<g>
	<text transform="matrix(1 0 0 1 561.5541 550.694)"><tspan x="0" y="0" fill="#B550B0" font-family="'MajorMonoDisplay-Regular'" font-size="12">first</tspan><tspan x="0" y="14.4" fill="#B550B0" font-family="'MajorMonoDisplay-Regular'" font-size="12">tweet</tspan></text>
</g>
<rect x="502.5" y="503.9" fill="#CCDFC1" width="23" height="21.3"/>
<rect x="570" y="518.9" fill="#B550B0" width="23" height="6.3"/>
<text transform="matrix(0.9821 0 0 1 434.8255 550.694)"><tspan x="0" y="0" fill="#6D6D6D" font-family="'MajorMonoDisplay-Regular'" font-size="12">stay</tspan><tspan x="0" y="14.4" fill="#6D6D6D" font-family="'MajorMonoDisplay-Regular'" font-size="12">free</tspan></text>
<rect x="434.8" y="503.9" fill="#6D6D6D" width="23" height="21.3"/>
<rect x="43.5" y="663.4" fill="#FFDEA4" width="17.5" height="20.1"/>
<text transform="matrix(1 0 0 1 207.614 676.8754)" font-family="'MajorMonoDisplay-Regular'" font-size="11">beeple</text>
<rect x="179.7" y="663.4" fill="#474E82" width="17.5" height="20.1"/>
<text transform="matrix(1 0 0 1 306.9093 676.8754)" font-family="'MajorMonoDisplay-Regular'" font-size="11">xcopy</text>
<rect x="273.6" y="663.4" fill="#DFC9CD" width="17.5" height="20.1"/>
<text transform="matrix(1 0 0 1 392.0529 676.8757)" font-family="'MajorMonoDisplay-Regular'" font-size="11">edward snowden</text>
<rect x="369.2" y="663.4" fill="#6D6D6D" width="17.5" height="20.1"/>
<text transform="matrix(1 0 0 1 550.751 676.8759)" font-family="'MajorMonoDisplay-Regular'" font-size="11">tim berners-lee</text>
<rect x="524.1" y="663.4" fill="#CCDFC1" width="17.5" height="20.1"/>
<text transform="matrix(1 0 0 1 710.7911 676.8757)" font-family="'MajorMonoDisplay-Regular'" font-size="11">pak</text>
<rect x="684.1" y="663.4" fill="#8588A8" width="17.5" height="20.1"/>
<text transform="matrix(1 0 0 1 783.2148 676.8751)" font-family="'MajorMonoDisplay-Regular'" font-size="11">jack dorsey</text>
<rect x="758.1" y="663.4" fill="#B550B0" width="17.5" height="20.1"/>
<text transform="matrix(1 0 0 1 917.3525 670.2756)"><tspan x="0" y="0" font-family="'MajorMonoDisplay-Regular'" font-size="11">julian Assange</tspan><tspan x="0" y="13.2" font-family="'MajorMonoDisplay-Regular'" font-size="11">and pak</tspan></text>
<rect x="886.4" y="663.4" fill="#7C467B" width="17.5" height="20.1"/>
<text transform="matrix(1 0 0 1 624.848 557.8934)" fill="#FFB110" font-family="'MajorMonoDisplay-Regular'" font-size="12">#3442</text>
<rect x="637.8" y="472.9" fill="#FFDEA4" width="23" height="51.9"/>
<g>
	<text transform="matrix(1 0 0 1 1041.6278 557.8947)" fill="#FFDEA4" font-family="'MajorMonoDisplay-Regular'" font-size="12">#4156</text>
</g>
<rect x="1053.5" y="486.5" fill="#FFDEA4" width="23" height="38.4"/>
<rect x="846" y="106.2" fill="#8588A8" width="23" height="418.5"/>
<rect x="164.7" y="217.5" fill="#474E82" width="23" height="307"/>
<text transform="matrix(1 0 0 1 677.8871 557.8946)" fill="#474E82" font-family="'MajorMonoDisplay-Regular'" font-size="12">human</text>
<text transform="matrix(1 0 0 1 726.398 557.8944)" fill="#474E82" font-family="'MajorMonoDisplay-Regular'" font-size="12">one</text>
<rect x="706.7" y="428.7" fill="#474E82" width="23" height="96.3"/>
<rect x="979.3" y="287.1" fill="#7C467B" width="23" height="237.7"/>
<g>
	<line fill="none" stroke="#C2C0C0" stroke-width="0.6655" stroke-miterlimit="10" x1="107.9" y1="472.9" x2="125" y2="472.9"/>
	<line fill="none" stroke="#C2C0C0" stroke-width="0.6655" stroke-miterlimit="10" x1="107.9" y1="428.7" x2="125" y2="428.7"/>
	<line fill="none" stroke="#C2C0C0" stroke-width="0.6655" stroke-miterlimit="10" x1="107.9" y1="384.6" x2="125" y2="384.6"/>
	<line fill="none" stroke="#C2C0C0" stroke-width="0.6655" stroke-miterlimit="10" x1="107.9" y1="340.4" x2="125" y2="340.4"/>
	<line fill="none" stroke="#C2C0C0" stroke-width="0.6655" stroke-miterlimit="10" x1="107.9" y1="296.2" x2="125" y2="296.2"/>
	<line fill="none" stroke="#C2C0C0" stroke-width="0.6655" stroke-miterlimit="10" x1="107.9" y1="252.1" x2="125" y2="252.1"/>
	<line fill="none" stroke="#C2C0C0" stroke-width="0.6655" stroke-miterlimit="10" x1="107.9" y1="207.9" x2="125" y2="207.9"/>
	<line fill="none" stroke="#C2C0C0" stroke-width="0.6655" stroke-miterlimit="10" x1="107.9" y1="163.8" x2="125" y2="163.8"/>
	<line fill="none" stroke="#C2C0C0" stroke-width="0.6655" stroke-miterlimit="10" x1="107.9" y1="119.6" x2="125" y2="119.6"/>
</g>
</svg>
