<?xml version="1.0" encoding="utf-8"?>
<!-- Generator: Adobe Illustrator 18.0.0, SVG Export Plug-In . SVG Version: 6.00 Build 0)  -->
<!DOCTYPE svg PUBLIC "-//W3C//DTD SVG 1.1//EN" "http://www.w3.org/Graphics/SVG/1.1/DTD/svg11.dtd">
<svg version="1.1" id="Layer_1" xmlns="http://www.w3.org/2000/svg" xmlns:xlink="http://www.w3.org/1999/xlink" x="0px" y="0px"
	 viewBox="0 0 1184.8 723.8" enable-background="new 0 0 1184.8 723.8" xml:space="preserve">
<polyline fill="none" stroke="#BEBCBC" stroke-width="0.7677" stroke-miterlimit="10" points="1021.9,547.7 97.8,547.7 123,547.7 
	123,568.3 123,94.1 1042.7,94.1 "/>
<g id="lines_1_">
	<g>
		<g>
			<defs>
				<polyline id="SVGID_1_" points="-550.9,249.2 1319,249.2 1319,542.4 -550.9,542.4 				"/>
			</defs>
			<clipPath id="SVGID_2_">
				<use xlink:href="#SVGID_1_"  overflow="visible"/>
			</clipPath>
			<path pointer-events="none" clip-path="url(#SVGID_2_)" fill="none" stroke="#E1C5CA" stroke-width="3.6129" d="M124.5,416.7
				c2.6-1.6,5.3-3.1,7.9-4.3c21.1-10.2,42.2-6.3,63.2-18.2c21.1-11.9,42.2-33,63.2-53.2c19-18.3,38.1-61,57.1-61
				c21.1,0,42.2,1.7,63.2,5.2c20.4,3.3,40.8,83.8,61.2,90.3c21.1,6.8,42.2,10.1,63.2,10.1c20.4,0,40.8-20.3,61.2-29.1
				c21.1-9.1,42.2-24.5,63.2-24.5c21.1,0,42.2,14.9,63.2,14.9c20.4,0,40.8-77.6,61.2-77.6c21.1,0,42.2,7.7,63.2,19.1
				c20.4,11,40.8,33.8,61.2,47.3c21.1,14,42.2,34.6,63.2,34.6c21.1,0,42.2-15.5,63.2-20.8c19-4.8,38.1-10.4,57.1-10.4
				c12.1,0,24.2,8,36.3,16.8"/>
		</g>
	</g>
</g>
<g>
	<line fill="#90C87B" x1="125.4" y1="142.5" x2="1098.5" y2="142.5"/>
	<line fill="#90C87B" x1="125.4" y1="186.6" x2="1098.5" y2="186.6"/>
	<line fill="#90C87B" x1="125.4" y1="230.8" x2="1098.5" y2="230.8"/>
	<line fill="#90C87B" x1="125.4" y1="275" x2="1098.5" y2="275"/>
	<line fill="#90C87B" x1="125.4" y1="319.1" x2="1098.5" y2="319.1"/>
	<line fill="#90C87B" x1="125.4" y1="363.3" x2="1098.5" y2="363.3"/>
	<line fill="#90C87B" x1="125.4" y1="407.4" x2="1098.5" y2="407.4"/>
	<line fill="#90C87B" x1="125.4" y1="451.6" x2="1098.5" y2="451.6"/>
	<line fill="#90C87B" x1="125.4" y1="495.8" x2="1098.5" y2="495.8"/>
</g>
<text transform="matrix(1 0 0 1 195.6903 84.5016)" fill="#6D6C6C" font-family="'AauxProBold'" font-size="18">2021</text>
<g>
	<text transform="matrix(1 0 0 1 940.2332 84.5016)" fill="#6D6C6C" font-family="'AauxProBold'" font-size="18">2022</text>
</g>
<text transform="matrix(1 0 0 1 859.1453 580.9791)" fill="#90C87B" font-family="'MajorMonoDisplay-Regular'" font-size="12">merge</text>
<text transform="matrix(1 0 0 1 782.4431 580.8134)" fill="#474E81" font-family="'MajorMonoDisplay-Regular'" font-size="12">everyday</text>
<text transform="matrix(1 0 0 1 77.692 698.5363)" font-family="'MajorMonoDisplay-Regular'" font-size="11">cryptopunks</text>
<text transform="matrix(1 0 0 1 970.2917 581.767)"><tspan x="0" y="0" fill="#474E81" font-family="'MajorMonoDisplay-Regular'" font-size="12">the</tspan><tspan x="23.7" y="0" fill="#474E81" font-family="'MajorMonoDisplay-Regular'" font-size="12" letter-spacing="-1"> </tspan><tspan x="31.2" y="0" fill="#474E81" font-family="'MajorMonoDisplay-Regular'" font-size="12">clock</tspan></text>
<text transform="matrix(1 0 0 1 42.7878 663.7699)" fill="#3F3F3F" font-family="'AauxProBold'" font-size="12">Creadores</text>
<text transform="matrix(1 0 0 1 70.8491 580.7677)" fill="#3F3F3F" font-family="'AauxProBold'" font-size="12">NFT</text>
<text transform="matrix(1 0 0 1 10.7958 102.8273)"><tspan x="0" y="0" fill="#3F3F3F" font-family="'AauxProBold'" font-size="13">Valor por pieza en </tspan><tspan x="65.2" y="15.6" fill="#3F3F3F" font-family="'AauxProBold'" font-size="13">dólares</tspan></text>
<text transform="matrix(1 0 0 1 125.7689 42.7862)" font-family="'AauxProRegularItalicOSF'" font-size="22">Comparación del precio de Bitcoin y los 15 NFT’s vendidos más caros</text>
<text transform="matrix(1 0 0 1 1047.1523 581.767)" fill="#FCAD12" font-family="'MajorMonoDisplay-Regular'" font-size="12">#5577</text>
<rect x="1053.4" y="512.1" fill="#FFC25C" width="23" height="36.2"/>
<text transform="matrix(1 0 0 1 1013.619 598.3558)" fill="#FCAD12" font-family="'MajorMonoDisplay-Regular'" font-size="12">#5822</text>
<rect x="1022" y="478.8" fill="#FFC25C" width="23" height="69.5"/>
<text transform="matrix(1 0 0 1 234.45 580.7679)" fill="#FCAD12" font-family="'MajorMonoDisplay-Regular'" font-size="12">#7523</text>
<rect x="246" y="486.9" fill="#FFC25C" width="23" height="61.4"/>
<text transform="matrix(1 0 0 1 877.7311 621.548)"><tspan x="0" y="0" fill="#953B1A" font-family="'MajorMonoDisplay-Regular'" font-size="12">right</tspan><tspan x="0" y="14.4" fill="#953B1A" font-family="'MajorMonoDisplay-Regular'" font-size="12">click</tspan><tspan x="4.1" y="28.8" fill="#953B1A" font-family="'MajorMonoDisplay-Regular'" font-size="12">save</tspan></text>
<text transform="matrix(1 0 0 1 934.8983 621.5477)"><tspan x="0" y="0" fill="#953B1A" font-family="'MajorMonoDisplay-Regular'" font-size="12">All </tspan><tspan x="-4.1" y="14.4" fill="#953B1A" font-family="'MajorMonoDisplay-Regular'" font-size="12">time </tspan><tspan x="0" y="28.8" fill="#953B1A" font-family="'MajorMonoDisplay-Regular'" font-size="12">High</tspan></text>
<text transform="matrix(1 0 0 1 283.9485 580.9237)" fill="#FCAD12" font-family="'MajorMonoDisplay-Regular'" font-size="12">#7804</text>
<rect x="297" y="513.1" fill="#FFC25C" width="23" height="35.1"/>
<text transform="matrix(1 0 0 1 304.4479 601.3563)" fill="#FCAD12" font-family="'MajorMonoDisplay-Regular'" font-size="12">#3100</text>
<rect x="319.9" y="513.8" fill="#FFC25C" width="23" height="34.5"/>
<g>
	<text transform="matrix(1 0 0 1 340.7599 573.6957)"><tspan x="0" y="0" fill="#474E81" font-family="'MajorMonoDisplay-Regular'" font-size="12">cross</tspan><tspan x="0" y="14.4" fill="#474E81" font-family="'MajorMonoDisplay-Regular'" font-size="12">road</tspan></text>
</g>
<rect x="342.8" y="526.9" fill="#474E81" width="23" height="21.3"/>
<text transform="matrix(0.9821 0 0 1 734.6323 580.7682)" fill="#6D6D6D" font-family="'MajorMonoDisplay-Regular'" font-size="12">#109</text>
<rect x="742.9" y="526.9" fill="#6D6D6D" width="23" height="21.3"/>
<rect x="51.5" y="685.1" fill="#FFC25C" width="17.5" height="20.1"/>
<text transform="matrix(1 0 0 1 215.6828 698.536)" font-family="'MajorMonoDisplay-Regular'" font-size="11">beeple</text>
<rect x="187.7" y="685.1" fill="#474E81" width="17.5" height="20.1"/>
<text transform="matrix(1 0 0 1 314.9781 698.536)" font-family="'MajorMonoDisplay-Regular'" font-size="11">xcopy</text>
<rect x="281.7" y="685.1" fill="#985A49" width="17.5" height="20.1"/>
<text transform="matrix(1 0 0 1 400.1217 698.5363)" font-family="'MajorMonoDisplay-Regular'" font-size="11">edward snowden</text>
<rect x="377.3" y="685.1" fill="#6D6D6D" width="17.5" height="20.1"/>
<text transform="matrix(1 0 0 1 570.13 698.5363)" font-family="'MajorMonoDisplay-Regular'" font-size="11">pak</text>
<rect x="541.5" y="685.1" fill="#C4DDBB" width="17.5" height="20.1"/>
<text transform="matrix(1 0 0 1 654.2493 691.9362)"><tspan x="0" y="0" font-family="'MajorMonoDisplay-Regular'" font-size="11">julian Assange</tspan><tspan x="0" y="13.2" font-family="'MajorMonoDisplay-Regular'" font-size="11">and pak</tspan></text>
<rect x="619.3" y="685.1" fill="#7C467B" width="17.5" height="20.1"/>
<text transform="matrix(1 0 0 1 667.6237 581.3458)" fill="#FCAD12" font-family="'MajorMonoDisplay-Regular'" font-size="12">#3442</text>
<rect x="680.5" y="496.3" fill="#FFC25C" width="23" height="51.9"/>
<text transform="matrix(1 0 0 1 898.6833 599.7379)" fill="#FCAD12" font-family="'MajorMonoDisplay-Regular'" font-size="12">#4156</text>
<rect x="912.9" y="490" fill="#FFC25C" width="23" height="57.8"/>
<rect x="858.9" y="129.3" fill="#C4DDBB" width="23" height="418.5"/>
<rect x="804.9" y="240.7" fill="#474E81" width="23" height="307"/>
<text transform="matrix(1 0 0 1 806.4447 598.3561)" fill="#474E81" font-family="'MajorMonoDisplay-Regular'" font-size="12">human</text>
<text transform="matrix(1 0 0 1 854.9556 598.3558)" fill="#474E81" font-family="'MajorMonoDisplay-Regular'" font-size="12">one</text>
<rect x="831.9" y="451.5" fill="#474E81" width="23" height="96.3"/>
<rect x="990.6" y="310.6" fill="#7C467B" width="23" height="237.7"/>
<g>
	<line fill="none" stroke="#BEBCBC" stroke-width="0.6655" stroke-miterlimit="10" x1="115.9" y1="495.8" x2="133.1" y2="495.8"/>
	<line fill="none" stroke="#BEBCBC" stroke-width="0.6655" stroke-miterlimit="10" x1="115.9" y1="451.6" x2="133.1" y2="451.6"/>
	<line fill="none" stroke="#BEBCBC" stroke-width="0.6655" stroke-miterlimit="10" x1="115.9" y1="407.4" x2="133.1" y2="407.4"/>
	<line fill="none" stroke="#BEBCBC" stroke-width="0.6655" stroke-miterlimit="10" x1="115.9" y1="363.3" x2="133.1" y2="363.3"/>
	<line fill="none" stroke="#BEBCBC" stroke-width="0.6655" stroke-miterlimit="10" x1="115.9" y1="319.1" x2="133.1" y2="319.1"/>
	<line fill="none" stroke="#BEBCBC" stroke-width="0.6655" stroke-miterlimit="10" x1="115.9" y1="275" x2="133.1" y2="275"/>
	<line fill="none" stroke="#BEBCBC" stroke-width="0.6655" stroke-miterlimit="10" x1="115.9" y1="230.8" x2="133.1" y2="230.8"/>
	<line fill="none" stroke="#BEBCBC" stroke-width="0.6655" stroke-miterlimit="10" x1="115.9" y1="186.6" x2="133.1" y2="186.6"/>
	<line fill="none" stroke="#BEBCBC" stroke-width="0.6655" stroke-miterlimit="10" x1="115.9" y1="142.5" x2="133.1" y2="142.5"/>
</g>
<g>
	<line x1="195.7" y1="110.1" x2="195.7" y2="95.1"/>
	<line x1="257.7" y1="110.1" x2="257.7" y2="95.1"/>
	<line x1="319.8" y1="110.1" x2="319.8" y2="95"/>
	<line x1="381.8" y1="110" x2="381.8" y2="95"/>
	<line x1="443.9" y1="110" x2="443.9" y2="95"/>
	<line x1="505.9" y1="109.9" x2="505.9" y2="94.9"/>
	<line x1="568" y1="109.9" x2="568" y2="94.9"/>
	<line x1="630" y1="109.9" x2="630" y2="94.8"/>
	<line x1="692.1" y1="109.8" x2="692.1" y2="94.8"/>
	<line x1="754.1" y1="109.8" x2="754.1" y2="94.8"/>
	<line x1="816.1" y1="109.7" x2="816.1" y2="94.7"/>
	<line x1="878.2" y1="109.7" x2="878.2" y2="94.7"/>
	<line x1="940.2" y1="109.7" x2="940.2" y2="94.7"/>
</g>
<rect x="885.9" y="502.3" fill="#985A49" width="23" height="45.4"/>
<rect x="940.2" y="519.5" fill="#985A49" width="23" height="28.3"/>
<polyline fill="none" stroke="#BEBCBC" stroke-width="0.1685" stroke-miterlimit="10" points="1049.7,547.7 1096.9,547.7 
	1096.9,185.4 "/>
<line x1="1002.1" y1="94.1" x2="1002.1" y2="109.6"/>
<text transform="matrix(1 0 0 1 1116.1647 498.694)" fill="#E1C5CA" font-family="'AauxProBold'" font-size="13">$ 10 k</text>
<text transform="matrix(1 0 0 1 1115.5509 454.5079)" fill="#E1C5CA" font-family="'AauxProBold'" font-size="13">$ 20 k</text>
<text transform="matrix(1 0 0 1 1114.9375 410.3214)" fill="#E1C5CA" font-family="'AauxProBold'" font-size="13">$ 30 k</text>
<text transform="matrix(1 0 0 1 1114.3237 366.1346)" fill="#E1C5CA" font-family="'AauxProBold'" font-size="13">$ 40 k</text>
<text transform="matrix(1 0 0 1 1113.7098 321.9484)" fill="#E1C5CA" font-family="'AauxProBold'" font-size="13">$ 50 k</text>
<text transform="matrix(1 0 0 1 1114.3235 277.7618)" fill="#E1C5CA" font-family="'AauxProBold'" font-size="13">$ 60 k</text>
<g>
	<line fill="none" stroke="#BEBCBC" stroke-width="0.6655" stroke-miterlimit="10" x1="1088.3" y1="495.6" x2="1105.5" y2="495.6"/>
	<line fill="none" stroke="#BEBCBC" stroke-width="0.6655" stroke-miterlimit="10" x1="1088.3" y1="451.4" x2="1105.5" y2="451.4"/>
	<line fill="none" stroke="#BEBCBC" stroke-width="0.6655" stroke-miterlimit="10" x1="1088.3" y1="407.3" x2="1105.5" y2="407.3"/>
	<line fill="none" stroke="#BEBCBC" stroke-width="0.6655" stroke-miterlimit="10" x1="1088.3" y1="363.1" x2="1105.5" y2="363.1"/>
	<line fill="none" stroke="#BEBCBC" stroke-width="0.6655" stroke-miterlimit="10" x1="1088.3" y1="318.9" x2="1105.5" y2="318.9"/>
	<line fill="none" stroke="#BEBCBC" stroke-width="0.6655" stroke-miterlimit="10" x1="1088.3" y1="274.8" x2="1105.5" y2="274.8"/>
	<line fill="none" stroke="#BEBCBC" stroke-width="0.6655" stroke-miterlimit="10" x1="1088.3" y1="230.6" x2="1105.5" y2="230.6"/>
	<line fill="none" stroke="#BEBCBC" stroke-width="0.6655" stroke-miterlimit="10" x1="1088.3" y1="186.5" x2="1105.5" y2="186.5"/>
	
		<line display="none" fill="none" stroke="#BEBCBC" stroke-width="0.6655" stroke-miterlimit="10" x1="1088.3" y1="142.3" x2="1105.5" y2="142.3"/>
</g>
<text transform="matrix(1 0 0 1 53.7352 144.4911)" fill="#3F3F3F" font-family="'AauxProBold'" font-size="13">$ 90 m</text>
<text transform="matrix(1 0 0 1 55.5763 497.9823)" fill="#3F3F3F" font-family="'AauxProBold'" font-size="13">$ 10 m</text>
<text transform="matrix(1 0 0 1 54.9625 453.7965)" fill="#3F3F3F" font-family="'AauxProBold'" font-size="13">$ 20 m</text>
<text transform="matrix(1 0 0 1 54.3492 409.6097)" fill="#3F3F3F" font-family="'AauxProBold'" font-size="13">$ 30 m</text>
<text transform="matrix(1 0 0 1 53.7353 365.4232)" fill="#3F3F3F" font-family="'AauxProBold'" font-size="13">$ 40 m</text>
<text transform="matrix(1 0 0 1 53.1215 321.2367)" fill="#3F3F3F" font-family="'AauxProBold'" font-size="13">$ 50 m</text>
<text transform="matrix(1 0 0 1 53.7351 277.0502)" fill="#3F3F3F" font-family="'AauxProBold'" font-size="13">$ 60 m</text>
<text transform="matrix(1 0 0 1 53.735 232.8639)" fill="#3F3F3F" font-family="'AauxProBold'" font-size="13">$ 70 m</text>
<text transform="matrix(1 0 0 1 53.7351 188.6776)" fill="#3F3F3F" font-family="'AauxProBold'" font-size="13">$ 80 m</text>
<g>
	<text transform="matrix(1 0 0 1 1076.2468 95.1075)"><tspan x="0" y="0" fill="#E1C5CA" font-family="'AauxProBold'" font-size="13">Valor de Bitcoin,</tspan><tspan x="22.7" y="15.6" fill="#E1C5CA" font-family="'AauxProBold'" font-size="13">rango en su </tspan><tspan x="6.7" y="31.2" fill="#E1C5CA" font-family="'AauxProBold'" font-size="13">precio más alto</tspan><tspan x="19.9" y="46.8" fill="#E1C5CA" font-family="'AauxProBold'" font-size="13">en la historia</tspan></text>
</g>
</svg>
