<?xml version="1.0" encoding="utf-8"?>
<!-- Generator: Adobe Illustrator 18.0.0, SVG Export Plug-In . SVG Version: 6.00 Build 0)  -->
<!DOCTYPE svg PUBLIC "-//W3C//DTD SVG 1.1//EN" "http://www.w3.org/Graphics/SVG/1.1/DTD/svg11.dtd">
<svg version="1.1" xmlns="http://www.w3.org/2000/svg" xmlns:xlink="http://www.w3.org/1999/xlink" x="0px" y="0px"
	 viewBox="0 95.4 1224 627.8" enable-background="new 0 95.4 1224 627.8" xml:space="preserve">
<g id="Layer_1">
	<polygon fill="#F1EDED" stroke="#F1EDED" stroke-width="1.0581" stroke-miterlimit="10" points="496.8,623.3 496.8,592.8 
		492.1,592.8 492.1,578.8 487.2,578.8 487.2,563.6 463.6,540.1 434.3,540.1 420.5,506.8 405.2,506.8 405.2,514.2 377.6,514.2 
		377.6,502.3 374.2,502.3 374.2,498 369.7,498 369.7,489.4 374.2,489.4 374.2,473.2 377.6,473.2 377.6,466.3 382,466.3 382,463.9 
		386.9,463.9 386.9,458.9 394.9,458.9 394.9,444.6 399.3,444.6 399.3,440.2 401.8,440.2 401.8,436.7 406.7,436.7 406.7,433.2 
		415.1,433.2 415.1,423.6 424.9,423.6 424.9,411.8 433.2,411.8 433.2,404.2 439.2,404.2 439.2,396.2 446.7,396.2 446.7,391.9 
		464.2,391.9 464.2,383.5 491.1,383.5 491.1,394.3 503.5,394.3 503.5,389.3 507.9,389.3 507.9,392.3 510.1,394.5 515.8,394.5 
		515.8,392.3 521.9,392.3 521.9,389.3 532,389.3 554.8,389.3 554.8,392.3 571,392.3 571,405.7 604.1,405.7 604.1,398.8 604.1,393.8 
		625.4,393.8 625.4,386.9 652.1,386.9 663.6,398.4 690.9,398.4 690.9,434.7 704.8,434.7 668.9,434.7 640.1,434.7 640.1,427.3 
		620.4,427.3 617.4,427.3 617.4,433.2 606.1,433.2 606.1,414.9 585.3,415.5 585.3,427.9 587.9,427.9 587.9,437.7 596.2,437.7 
		596.2,446.1 601.6,446.1 601.6,452.2 604.5,455.1 604.5,457.9 617.4,457.9 617.4,466.3 619.4,470.2 619.4,481.9 605.1,481.9 
		605.1,491 585.3,491 585.3,503.4 579.4,503.4 579.4,509.2 583.9,509.2 583.9,521.8 590.8,521.8 590.8,539.8 578.9,539.8 
		578.9,578.8 571,578.8 571,608 562.2,608 562.2,625.2 553.8,625.2 553.8,636 525.1,636 496.8,636 	"/>
	<polygon fill="#F1EDED" stroke="#F1EDED" stroke-width="1.0581" stroke-miterlimit="10" points="1064.6,286.8 1083.7,286.8 
		1083.7,272.8 1093.7,272.8 1093.7,266.2 1100,266.2 1100,256.6 1083.7,256.6 1083.7,247.7 1095.8,247.7 1095.8,230.4 1100,230.4 
		1100,220.9 1114.4,220.9 1121,220.9 1121,209.5 1126.3,209.5 1126.3,195.7 1131.7,195.7 1137.3,195.7 1144.2,195.7 1153.8,195.7 
		1153.8,157.8 652.6,157.8 653,204.3 629.1,204.3 620.1,204.3 620.1,216.6 603.7,216.6 603.7,233 595.5,233 595.5,248.6 589,248.6 
		589,257.6 574.9,257.6 574.9,246.1 560.2,246.1 560.2,260.9 545.4,260.9 545.4,253.6 535.5,253.6 535.5,266.6 526.5,266.6 
		526.5,274.1 518.3,274.1 518.3,282.2 504.4,282.2 504.4,292.1 496.1,292.1 496.1,303.1 506,303.1 506,321.7 464.2,321.7 464.2,334 
		473.2,334 493.5,333.7 506.8,361.9 506.8,329.8 522.5,329.8 522.5,322.5 531.5,322.5 534.6,325.6 539.7,325.6 539.7,315.9 
		551.1,315.9 551.1,326.2 560.2,326.2 560.2,332.4 574.2,332.4 574.2,348.5 560.2,348.5 560.2,353.6 565.9,353.6 565.9,361.9 
		579.1,361.9 579.1,353.6 584.8,353.6 584.8,342.4 584.8,326.2 591.4,326.2 591.4,333.1 595.5,337.3 595.5,348.5 600.4,348.5 
		600.4,354.5 600.4,365.7 610.3,365.7 610.3,342.4 627.5,342.4 627.5,361.9 645.6,361.9 665.5,361.9 665.5,381.6 652.1,381.6 
		652.1,397.2 652.1,400.8 655.8,404.4 658.4,407 661.7,407 661.7,411.8 671.1,411.8 677.5,411.8 727,353.2 782.3,383.4 860.3,381.6 
		897.5,362.5 923,410.4 959.5,407.8 963.9,354.2 998.9,354.2 998.9,334.2 1035.2,334.2 1056.8,334.2 1056.8,286.8 	"/>
	<polygon fill="#F1EDED" stroke="#F1EDED" stroke-width="1.0581" stroke-miterlimit="10" points="571.4,233.2 560.7,233.2 
		560.7,238.6 540.3,238.6 540.3,233.2 532.2,233.2 532.2,235.9 517.3,235.9 517.3,229.5 504.4,229.5 504.4,238.6 475,238.6 
		475,242.4 467.3,242.4 467.3,266.5 451.7,266.5 451.7,277.8 439.2,277.8 439.2,285.3 430.8,285.3 430.8,290.1 425.5,290.1 
		425.5,298.7 431.3,298.7 431.3,324.9 427.6,324.9 427.6,330.4 406.2,330.4 406.2,338.4 395.4,338.4 395.4,367.3 415.3,367.3 
		429.7,367.3 429.7,350.8 435.7,350.8 435.7,338.4 444.3,338.4 444.3,325.5 455.5,325.5 455.5,332.5 464.2,332.5 515.1,325.5 
		582.2,268.1 	"/>
	<polygon fill="#F1EDED" stroke="#F1EDED" stroke-width="1.0581" stroke-miterlimit="10" points="506.8,359.3 506.8,364.3 
		515.7,364.3 515.7,369.8 521.2,369.8 521.2,375.3 516.2,375.3 516.2,383.5 524.2,383.5 524.2,378.3 527.8,378.3 527.8,375.3 
		532.2,375.3 532.2,371.4 528.9,371.4 528.9,361.8 537.2,361.8 537.2,367.3 545.3,367.3 545.3,361.8 541.8,361.8 541.8,359.3 
		537.2,359.3 537.2,354.8 528.9,354.8 528.9,344.7 523.7,344.7 518.7,344.7 518.7,338.4 515.7,338.4 515.7,329.8 528.9,329.8 
		532.2,329.8 532.2,341.8 544,341.8 544,356.6 551.7,356.6 551.7,364.8 557.7,364.8 579.1,364.8 579.1,315.8 566,302.6 521.2,302.6 
		488.8,302.6 	"/>
	<polygon fill="#F9E8D1" points="420.3,244.5 420.3,247.2 427.3,247.2 427.3,251.1 422.4,251.1 422.4,252 423.8,252 423.8,255.2 
		426.6,255.2 426.6,252.9 435,252.9 435,255.2 441.4,255.2 441.4,247.7 443.2,247.7 443.2,244.5 441.6,244.5 441.6,241.4 
		439.2,241.4 439.2,231.6 436.7,231.6 436.7,226.6 434,226.6 434,222 431.2,222 431.2,218.6 433.9,218.6 433.9,215.4 436.4,215.4 
		436.4,211.9 431.2,211.9 431.2,208.6 436.4,208.6 436.4,204.4 427,204.4 427,206.8 424.9,206.8 424.9,213.3 422.3,213.3 
		422.3,218.8 424.5,218.8 424.5,223 424.5,224.3 422.5,224.3 422.5,228.8 427.9,228.8 427.9,235.8 421.7,235.8 421.7,242.4 
		420.3,242.4 	"/>
	<polygon fill="#F3E1D0" points="389.5,202.3 389.5,188.7 404.9,188.7 404.9,202.3 404.9,218.8 397.1,218.8 397.1,226.4 
		376.6,226.4 376.6,221.4 384.6,221.4 384.6,205.2 389.1,205.2 	"/>
	<polygon fill="#F1EDED" stroke="#F1EDED" stroke-width="1.0581" stroke-miterlimit="10" points="825.2,437.2 830.6,437.2 
		830.6,439.5 833.2,439.5 833.2,454.2 838.8,454.2 838.8,462.1 842.4,462.1 842.4,466.3 879.6,466.3 879.6,460 883.5,460 
		883.5,451.8 887.7,451.8 887.7,446 883.5,446 883.5,432 876.7,432 876.7,424.7 876.7,420.7 872,420.7 872,414.3 868.3,414.3 
		868.3,410.4 865.2,410.4 865.2,406.6 860.9,406.6 860.9,399.5 864.7,399.5 864.7,396.8 868.2,396.8 868.2,394.2 851.5,394.2 
		851.5,391.1 848.7,391.1 848.7,384.1 845.2,384.1 845.2,387.2 835.2,387.2 835.2,384.1 828.6,384.1 828.6,380.9 814.9,380.9 
		814.9,390.5 812.3,390.5 812.3,393.9 815.3,393.9 815.3,417.1 815.3,417.5 818.8,417.5 818.8,427.3 822.1,427.3 822.1,431.2 
		824.4,431.2 824.4,437.2 	"/>
	<polygon fill="#F1EDED" stroke="#F1EDED" stroke-width="1.0581" stroke-miterlimit="10" points="876.4,380.5 876.4,389.8 
		885.9,389.8 885.9,397.9 889.6,397.9 889.6,401.9 892.6,401.9 892.6,411.5 909.2,411.5 909.2,421.2 912.6,421.2 912.6,428.9 
		916.3,428.9 916.3,444 911.4,444 911.4,449 920.5,449 920.5,474.7 926.4,474.7 926.4,480.9 931.4,480.9 931.4,485.9 934.7,485.9 
		934.7,488.9 934.7,498.5 939.9,498.5 939.9,509.1 944.9,509.1 944.9,512.8 949.8,512.8 949.8,516.8 953.7,516.8 953.7,521.8 
		961.1,521.8 961.1,509.3 955.9,509.3 955.9,502.2 951.6,502.2 951.6,496.1 947.6,496.1 947.6,487.4 942.6,487.4 942.6,482.1 
		936.3,482.1 934.4,480.2 934.4,473.7 929.5,473.7 929.5,468.9 924.9,468.9 924.9,453.4 928.8,453.4 928.8,440.6 934.4,440.6 
		934.4,447.4 945.4,447.4 945.4,452.4 952.8,452.4 952.8,458 975.2,458 975.2,453.7 980.1,453.7 980.1,436.6 976.4,436.6 
		976.4,431.7 970,431.7 970,417.8 964.5,417.8 964.5,403.5 962.1,403.5 962.1,399.2 957.7,399.2 957.7,394.5 948.5,394.5 
		948.5,390.2 936,390.2 936,385 930.7,385 930.7,389.8 925.5,389.8 925.5,385.5 920.9,385.5 920.9,380.5 916.9,380.5 916.9,371.9 
		911.9,371.9 911.9,366.7 908,366.7 908,356.7 911.7,356.7 911.7,344.7 901.3,344.7 901.3,348 896.8,348 896.8,351.9 893.7,351.9 
		893.7,355.2 889.7,355.2 889.7,360.4 886.7,360.4 886.7,368.7 886.7,373.5 882.8,373.5 882.8,379.1 882.8,380.7 	"/>
	<polygon fill="#F1EDED" stroke="#F1EDED" stroke-width="1.0581" stroke-miterlimit="10" points="981.2,539.9 981.2,546.4 
		985.4,546.4 985.4,550.4 989.6,550.4 989.6,554.4 994.2,554.4 994.2,558.1 998.1,558.1 998.1,562.3 1005.5,562.3 1005.5,566.4 
		1010.3,566.4 1025.4,566.4 1025.4,554.8 1020.9,554.8 1020.9,551.3 1017.2,551.3 1017.2,542.5 1012.6,542.5 1012.6,539.9 	"/>
	<polygon fill="#EEDBCF" points="1012.9,588.5 1012.9,594.8 1060.6,594.8 1060.6,598.5 1074.1,598.5 1074.1,593.5 1087.8,593.5 
		1087.8,601.6 1095.5,601.6 1095.5,595.1 1103.7,595.1 1103.7,590.8 1106.4,590.8 1106.4,593.9 1114.3,593.9 1114.3,591.1 
		1124.9,591.1 1124.9,587.2 1097.5,587.2 1074.9,587.2 1074.9,583.9 1066.4,583.9 1066.4,588.8 1060.2,588.8 1060.2,583.9 
		1052.9,583.9 1052.9,588.4 1034.8,588.4 1034.8,583.9 1024.2,583.9 1024.2,588.4 	"/>
	<polygon fill="#F1EDED" stroke="#F1EDED" stroke-width="1.0581" stroke-miterlimit="10" points="1042.2,518 1042.2,529.8 
		1046.3,529.8 1046.3,533.9 1051,533.9 1051,537.6 1053.8,537.6 1053.8,542.5 1058.5,542.5 1058.5,546.5 1066.1,546.5 1066.1,550.1 
		1074,550.1 1074,546.8 1086,546.8 1086,553.9 1090.9,553.9 1090.9,550.5 1094.8,550.5 1094.8,546 1097.8,546 1097.8,534.5 
		1102,534.5 1102,530.5 1107.3,530.5 1107.3,526.1 1110.2,526.1 1110.2,521.5 1114.2,521.5 1114.2,511.5 1109.5,511.5 1109.5,502.5 
		1105.3,502.5 1105.3,498 1098.1,498 1098.1,502 1083.3,502 1083.3,509.3 1078.2,509.3 1078.2,513.5 1074.1,513.5 1074.1,517.7 
		1070.2,517.7 1070.2,521.5 1046.3,521.5 1046.3,517.7 1042.2,517.7 	"/>
	<polygon fill="#F1EDED" stroke="#F1EDED" stroke-width="1.0581" stroke-miterlimit="10" points="1116.2,531.3 1116.2,545.3 
		1120.7,545.3 1120.7,553.9 1126.8,553.9 1126.8,548 1122.9,548 1122.9,538.1 1127.7,538.1 1127.7,541.3 1132.1,541.3 1132.1,545.7 
		1136.4,545.7 1136.4,549.6 1143.1,549.6 1143.1,543.7 1139.8,543.7 1139.8,539.3 1135.3,539.3 1135.3,534.7 1127.3,534.7 
		1127.3,529.7 1135,529.7 1135,525.9 1139.2,525.9 1139.2,522.5 1123.3,522.5 1123.3,517.6 1138.7,517.6 1138.7,512.9 1143.1,512.9 
		1143.1,506.8 1140.4,506.8 1140.4,510.3 1136.2,510.3 1136.2,514 1130.9,514 1130.9,510.2 1123.6,510.2 1123.6,514 1119.9,514 
		1119.9,530.4 1116.2,530.4 	"/>
	<polygon fill="#F1EDED" stroke="#F1EDED" stroke-width="1.0581" stroke-miterlimit="10" points="1149.7,512.3 1149.7,517 1151,517 
		1151,518.7 1154.4,518.7 1154.4,520.1 1159.3,520.1 1159.3,521.3 1163.2,521.3 1163.2,522.9 1165.9,522.9 1165.9,524.8 
		1164.2,524.8 1164.2,529.4 1164.9,529.4 1164.9,527.7 1166.9,527.7 1166.9,526.3 1169.1,526.3 1169.1,528.1 1170.6,528.1 
		1170.6,529.4 1175.4,529.4 1175.4,531.2 1176.7,531.2 1176.7,514.2 1174.8,514.2 1174.8,512.3 1171.8,512.3 1171.8,511 1165.7,511 
		1165.7,512.6 1160.9,512.6 1160.9,514.3 1159.1,514.3 1159.1,515.4 1157.7,515.4 1157.7,517 1155.6,517 1153.2,517 1152.3,517 
		1152.3,515.3 1153.8,515.3 1153.8,512.4 	"/>
	<polygon fill="#F1EDED" stroke="#F1EDED" stroke-width="1.0581" stroke-miterlimit="10" points="1177.1,514.2 1177.1,531.2 
		1180.6,531.2 1180.6,527.9 1196.4,527.9 1196.4,523 1191.6,523 1191.6,520.9 1185.4,520.9 1185.4,517.3 1178.9,517.3 1178.9,514.2 
			"/>
	<polygon fill="#F9E8D1" points="1099.8,638.9 1099.8,643.2 1090.4,643.2 1090.4,639.5 1086.8,639.5 1086.8,633.4 1090.2,633.4 
		1090.2,629.8 1097.1,629.8 1097.1,626.1 1100.4,626.1 1100.4,623.4 1106.7,623.4 1106.7,626.5 1110.7,626.5 1110.7,622.5 
		1113.8,622.5 1113.8,626.6 1116.7,626.6 1116.7,632.9 1119.9,632.9 1119.9,642.7 1116.6,642.7 1116.6,649.6 1113.9,649.6 
		1113.9,646.8 1110.8,646.8 1110.8,642.4 1103.9,642.4 1103.9,639.2 	"/>
	<polygon fill="#F1EDED" stroke="#F1EDED" stroke-width="1.0581" stroke-miterlimit="10" points="123.9,487.7 123.9,491.8 
		150,491.8 159.4,491.8 159.4,495.1 163.5,495.1 163.5,498 172.7,498 172.7,500.8 181.3,500.8 181.3,497.5 188.1,497.5 188.1,495.1 
		179,495.1 179,497.2 175.4,497.2 175.4,495.1 172.3,495.1 172.3,492.4 165.9,492.4 165.9,488.6 162.8,488.6 162.8,479.6 156,479.6 
		156,476.7 141,476.7 141,470.4 137.5,470.4 134,470.4 134,474.9 131.6,474.9 131.6,477 125.7,477 125.7,480.9 127.9,480.9 
		127.9,483.6 123.9,483.6 	"/>
	<polygon fill="#F1EDED" stroke="#F1EDED" stroke-width="1.0581" stroke-miterlimit="10" points="187.9,519.9 187.9,545.8 
		193.9,545.8 193.9,550.7 187.9,550.7 187.9,561.8 192.4,561.8 192.4,569.7 197,569.7 197,578.2 200.9,578.2 200.9,582.4 
		204.6,582.4 204.6,586.8 208.8,586.8 208.8,591 213.7,591 213.7,594.8 217.6,594.8 217.6,614 221.8,614 222.2,641.2 231.2,641 
		231.3,655.9 240.4,655.9 240.3,639.6 240.5,603.8 245,590.3 237.9,586.4 237.9,583.5 229.5,583.5 229.5,579.5 224.6,579.5 
		224.6,574.3 211.4,574.2 207.3,574.2 207.3,571.2 202.2,571.2 202.2,565.3 198.4,565.3 198.4,557 202.2,557 202.2,551.8 
		206.4,551.8 206.4,548 211.2,548 211.2,543.2 215.4,543.2 215.4,533.3 206.9,533.3 206.9,529.5 202.8,529.5 202.8,525.9 199,525.9 
		199,522.3 195.2,522.3 195.2,519.2 187.9,519.2 	"/>
	<polygon fill="#F9E8D1" points="1148.1,630.2 1137.1,630.2 1137.1,636.8 1152.4,636.8 1152.4,630.2 1160,630.2 1160,623.4 
		1167.2,623.4 1167.2,606.7 1161.2,606.7 1161.2,613 1152.1,613 1152.1,621.7 1148,621.7 	"/>
	<polygon fill="#E9D5CE" points="998.9,330.3 998.9,346.1 1013.5,346.1 1013.5,361.8 1028,361.8 1028,346.1 1093.7,346.1 
		1093.7,330.3 1065.7,330.3 1065.7,312 1079.1,312 1079.1,297.4 1064.6,297.4 1064.6,282.9 1052.4,282.9 1052.4,297.4 1031.8,297.4 
		1031.8,313.3 1014.8,313.3 1014.8,330.3 	"/>
	<polygon fill="#F9E8D1" points="1079.8,381.4 1079.8,383.6 1082.8,383.6 1082.8,386.4 1081.2,386.4 1081.2,389.3 1085.5,389.3 
		1085.5,386.6 1086.6,386.6 1086.6,384 1090.6,384 1090.6,382.8 1095,382.8 1095,381.4 1096.6,381.4 1096.6,378.3 1097.9,378.3 
		1097.9,380.4 1099.5,380.4 1099.5,382.2 1100.9,382.2 1100.9,381.2 1102.2,381.2 1102.2,378.3 1103.2,378.3 1103.2,377.1 
		1102.2,377.1 1102.2,375.5 1103.2,375.5 1103.2,376.3 1107.4,376.3 1107.4,375.5 1109.4,375.5 1109.4,376.5 1110.4,376.5 
		1110.4,373.8 1113.6,373.8 1113.6,375.4 1114.7,375.4 1114.7,372.7 1116.1,372.7 1116.1,371.7 1114.5,371.7 1114.5,370.3 
		1116.1,370.3 1116.1,363.2 1117.2,363.2 1117.2,359 1118.8,359 1118.8,357.5 1117.6,357.5 1117.6,351.9 1115.7,351.9 1115.7,349.7 
		1114.7,349.7 1114.7,347.3 1120,347.3 1120,349.1 1121.3,349.1 1121.3,347.3 1123.1,347.3 1123.1,344.8 1125.6,344.8 1125.6,343.6 
		1127,343.6 1127,342.5 1125.2,342.5 1125.2,341 1123.1,341 1123.1,339.2 1120,339.2 1120,338.1 1118.8,338.1 1118.8,336.8 
		1117.6,336.8 1117.6,335.6 1116.1,335.6 1116.1,342.5 1116.1,344 1116.1,345.1 1114.8,345.1 1114.8,343.6 1113.5,343.6 
		1113.5,345.3 1112.1,345.3 1112.1,350.8 1112.1,351.7 1113.2,351.7 1113.2,356 1112,356 1112,357.4 1113.5,357.4 1113.5,359.2 
		1112.1,359.2 1112.1,362.4 1110.8,362.4 1110.8,364.2 1109,364.2 1109,367.4 1106.4,367.4 1106.4,369.1 1103.3,369.1 1103.3,367.7 
		1102.2,367.7 1102.2,372.1 1100.6,372.1 1100.6,375 1098.2,375 1098.2,373.4 1095.3,373.4 1095.3,374.7 1089.9,374.7 1089.9,375.9 
		1088.3,375.9 1088.3,377.1 1085.6,377.1 1085.6,378.3 1084.4,378.3 1084.4,380.2 1081.5,380.2 1081.5,381.3 	"/>
	<polygon fill="#EEDBCF" points="406.6,457.4 406.6,541.6 444.4,541.6 444.4,453.9 418.1,453.9 418.1,456.9 	"/>
	<polygon fill="#F1EDED" stroke="#F1EDED" stroke-width="1.0581" stroke-miterlimit="10" points="565.8,246.1 565.8,226.2 
		561.2,226.2 561.2,220.5 553.1,220.5 553.1,225.1 545.3,225.1 545.3,209.3 548.9,209.3 548.9,196.5 551.7,196.5 551.7,190.6 
		555.6,190.6 555.6,194.5 561.9,194.5 561.9,202.6 567.9,202.6 567.9,210.3 574.9,210.3 574.9,213.8 584.1,213.8 584.1,218.4 
		598.2,218.4 598.2,221.3 609.5,221.3 609.5,242.4 591.5,260.4 563.2,260.4 	"/>
	<polygon fill="#EEDBCF" points="439.2,523.7 443.5,523.7 443.5,503.2 439.8,503.2 439.8,479.3 446.5,479.3 446.5,483.2 
		455.1,483.2 455.1,479.3 460.5,479.3 460.5,462.5 464.2,462.5 464.2,458.6 467.2,458.6 467.2,454.9 470.2,454.9 470.2,458.1 
		482.8,458.1 482.8,463.5 507.5,463.5 507.5,493.9 510.9,493.9 510.9,519.4 499.5,519.4 499.5,534.7 495.4,534.7 495.4,542.9 
		491.9,542.9 491.9,551.1 486.6,551.1 486.6,556.6 482.8,556.6 482.8,563.6 475,563.6 475,559.6 464.2,559.6 464.2,555.6 
		455.4,555.6 455.4,552.2 447.1,552.2 447.1,547.8 443.8,547.8 443.8,543.6 439.2,543.6 	"/>
	<polygon fill="#F3E1D0" points="545.5,520.4 545.5,527.7 540.8,527.7 540.8,541.1 545.5,541.1 545.5,548.5 541.6,548.5 
		541.6,552.2 545.5,552.2 545.5,561.4 558.5,561.4 558.5,563.5 563.1,563.5 563.1,572.9 565.9,572.9 565.9,581.6 570.2,581.6 
		570.2,592.7 572.3,592.7 572.3,579.8 576.5,579.8 576.5,572.9 580,572.9 580,553.8 576.7,553.8 576.7,542.5 571,542.5 571,536.6 
		577.2,536.6 577.2,529 569.7,529 569.7,533.4 561.5,533.4 556.6,533.4 556.6,529 548.1,529 548.1,520.4 	"/>
	<polygon id="southafrica" fill="#F9E8D1" points="499.6,627.2 499.6,640.3 503.6,640.3 503.6,644.6 505.8,644.6 505.8,647.3 
		529.7,647.3 529.7,644.4 533.7,644.4 533.7,640.9 537,640.9 537,638.5 540.8,638.5 540.8,630.3 534.5,630.3 534.5,624.1 
		540.8,624.1 540.8,617.2 535,617.2 535,613.1 529.2,613.1 529.2,621.9 523.5,621.9 523.5,623.9 501,623.9 501,625.4 499.6,625.4 	
		"/>
	<polygon fill="#F9E8D1" points="553.5,183.4 543.6,183.4 543.6,188.7 538.2,188.7 538.2,193.7 531,193.7 531,205.8 526.1,205.8 
		526.1,212.7 520.8,212.7 520.8,231.7 530.6,231.7 530.6,225.2 537.1,225.2 537.1,209.6 542.7,209.6 542.7,198.5 550.8,198.5 
		550.8,189.5 555.1,189.5 555.1,183.4 	"/>
	<polygon fill="#F9E8D1" points="544.7,183.4 544.7,172.7 524.5,172.7 524.5,178.1 512.8,178.1 512.8,183.4 512.8,187.7 
		508.5,187.7 508.5,198.3 495.2,198.3 495.2,210 505.9,210 505.9,215.3 519.9,215.3 521.8,215.3 521.8,212.7 527.1,212.7 
		527.1,205.8 532,205.8 532,198.1 532,193.9 538.2,193.9 538.2,188.7 543.9,188.7 544.7,188.7 	"/>
	<polygon fill="#F9E8D1" points="237.9,659 242.4,659 242.4,655.9 240.2,655.9 240.2,643.4 242.4,643.4 242.4,629.9 244.4,629.9 
		244.4,627.1 247,627.1 247,604.1 242.4,604.1 242.4,600.8 240.3,600.8 240.3,598 235.9,598 235.9,601.7 233.8,601.7 233.8,624 
		231.4,624 231.4,639.8 233.8,639.8 233.8,649.1 236.2,649.1 236.2,655.9 237.9,655.9 	"/>
	<polygon fill="#EEDBCF" points="255,622.9 251.7,622.9 251.7,618.7 246.6,618.7 246.6,606 242.3,606 242.3,601.4 237.6,601.4 
		237.6,591.6 233.4,591.6 233.4,583.1 225.3,583.1 225.3,578.9 220.6,578.9 220.6,573.8 216.1,573.8 216.1,578.9 207.2,578.9 
		207.2,573.8 203.3,573.8 203.3,570.4 198.2,570.4 198.2,565.4 194,565.4 194,557.7 198.2,557.7 198.2,552.2 202.5,552.2 
		202.5,548.4 207.2,548.4 207.2,543.7 211.4,543.7 211.4,530.1 216.1,530.1 216.1,526 233.8,526 233.8,512 228.7,512 228.7,508.1 
		237.6,508.1 237.6,504.3 247.4,504.3 247.4,490 255,490 255,494.1 259.2,494.1 259.2,500.1 268.1,500.1 268.1,504.3 272.4,504.3 
		272.4,509.4 277,509.4 277,514.1 290.1,514.1 290.1,518.3 299,518.3 299,523 303.3,523 303.3,525.6 308.4,525.6 308.4,529.4 
		312.6,529.4 312.6,547.5 308.4,547.5 308.4,556.5 303.3,556.5 303.3,560.7 298.6,560.7 298.6,569.9 293.9,569.9 293.9,573.3 
		288.5,573.3 288.5,577.2 283.4,577.2 283.4,583.1 279.6,583.1 279.6,586.9 273.2,586.9 273.2,596.7 267.3,596.7 267.3,601.4 
		263,601.4 263,604.7 255.3,604.7 	"/>
	<polygon fill="#F9E8D1" points="183.7,511.5 188,511.5 188,492.6 194.7,492.6 194.7,488.3 199.5,488.3 199.5,484 206.4,484 
		206.4,479.9 214,479.9 214,483 210.2,483 210.2,487.3 206.2,487.3 206.2,495.7 209.7,495.7 209.7,499.8 221.2,499.8 221.2,503.7 
		224.8,503.7 224.8,520.7 224.8,521.8 221.7,521.8 221.7,525.4 217.1,525.6 217.1,537.2 214.3,537.2 214.3,532.9 203,532.9 
		203,528.8 199,528.8 199,525.4 195.5,525.4 195.5,521.7 191.4,521.7 191.4,518.4 183.7,518.4 	"/>
	<polygon fill="#F3E1D0" points="205.1,483.6 208.9,483.6 208.9,484.3 212.7,484.3 212.7,488.5 217.2,488.5 217.2,484.6 
		238.6,484.6 238.6,488.5 247.2,488.5 247.2,505.7 237.9,505.7 237.9,509.4 229.1,509.4 229.1,514.4 233.9,514.4 233.9,526.9 
		221.7,526.9 221.7,505.2 217.8,505.2 217.8,501.2 204.5,501.2 204.5,496.3 200.1,496.3 200.1,488.4 205.1,488.4 	"/>
	<polygon fill="#F9E8D1" points="74.9,455.5 74.9,461 76.7,461 76.7,466.5 78.7,466.5 78.7,469.4 80.5,469.4 80.5,472.1 82.5,472.1 
		82.5,473.6 84.1,473.6 84.1,475.6 85.9,475.6 85.9,472.4 83.9,472.4 83.9,468.7 81.9,468.7 81.9,465.6 79.9,465.6 79.9,461.5 
		78.4,461.5 78.4,457.4 80.5,457.4 80.5,460.7 82.5,460.7 82.5,464.5 84.1,464.5 84.1,467.8 85.9,467.8 85.9,471.5 87.9,471.5 
		87.9,477.4 91.6,477.4 91.6,479.3 93.5,479.3 93.5,481 97.1,481 97.1,483 99,483 99,484.7 100.9,484.7 100.9,486.6 104.1,486.6 
		104.1,488.5 111.5,488.5 111.5,490.2 117.1,490.2 117.1,492.3 124.5,492.3 124.5,488.5 128,488.5 128,486.7 125.8,486.7 
		125.8,483.1 131.5,483.1 131.5,481.3 133.5,481.3 133.5,473.8 127.9,473.8 127.9,475.8 126.2,475.8 126.2,481.2 122.6,481.2 
		122.6,484.6 118.5,484.6 118.5,483.2 116.7,483.2 116.7,481.3 113.2,481.3 113.2,479.5 111.4,479.5 111.4,477.9 109.2,477.9 
		109.2,475.9 107.7,475.9 107.7,471.9 105.8,471.9 105.8,470.2 104.2,470.2 104.2,466.5 102.2,466.5 102.2,464.6 100.7,464.6 
		100.7,462.8 99,462.8 99,461 93.3,461 93.3,457.2 91.5,457.2 91.5,455.5 85.8,455.5 85.8,457.5 84.1,457.5 84.1,455.2 74.9,455.2 	
		"/>
	<polygon fill="#F3E1D0" points="96.2,456.1 96.2,456.1 102.8,456.1 102.8,452.7 109.6,452.7 109.6,455.9 115.6,455.9 115.6,450.4 
		113.6,450.4 113.6,449.5 122.8,449.5 122.8,452.5 129.5,452.5 129.5,456.1 132.4,456.1 132.4,466.3 138.7,466.3 138.7,456.8 
		135.2,456.8 135.2,449.5 138.7,449.5 138.7,446.4 141.8,446.4 141.8,443.1 144.6,443.1 144.6,440 150.8,440 150.8,433.7 
		147.6,433.7 147.6,430.5 150.8,430.5 150.8,424.1 154.8,424.1 154.8,420.6 158.3,420.6 158.3,413.9 161.7,413.9 161.7,410.9 
		163.7,410.9 163.7,407.8 170.7,407.8 170.7,398.2 165,398.2 165,401.7 161.5,401.7 161.5,404.1 152.6,404.1 152.6,408.1 
		147.6,408.1 147.6,411.3 142.4,411.3 142.4,414.6 135.4,414.6 135.4,411.1 128.9,411.1 128.9,404.8 125.9,404.8 125.9,407.6 
		122.7,407.6 122.7,418 119,418 119,404.4 122,404.4 122,401.1 118.5,401.1 118.5,398.2 115.7,398.2 115.7,401.1 111.9,401.1 
		111.9,395 109.6,395 109.6,391.5 31.9,391.5 31.9,411.9 29,411.9 29,426.7 31.4,426.7 31.4,429 36.2,429 36.2,433 36.2,436.2 
		38.8,436.2 38.8,440 42.5,440 42.5,442.4 45.6,442.4 45.6,445.6 52.5,445.6 52.5,455.1 73.5,455.1 95.9,455.1 96.2,455.1 	"/>
	<polygon fill="#F9E8D1" points="78.3,391.7 78.3,389.4 77.3,389.4 77.3,386.4 75.8,386.4 75.8,384 74.4,384 74.4,381.6 72.8,381.6 
		72.8,373.5 74.8,373.5 76.7,373.5 76.7,374.9 80,374.9 80,373.5 87.5,373.5 87.5,374.6 94.6,374.6 94.6,377.1 91.9,377.1 
		91.9,382.6 94.6,382.6 94.6,384.7 101,384.7 101,386.6 103.9,386.6 105.5,386.6 105.5,384.5 108.1,384.5 108.1,376.7 109.1,376.7 
		109.1,377.8 112.8,377.8 112.8,379.9 114.8,379.9 114.8,383.8 116.9,383.8 116.9,387.1 123.1,387.1 123.1,389.3 124.8,389.3 
		124.8,391.7 124.8,393.9 122.8,393.9 122.8,392.6 121.6,392.6 121.6,393.9 118.6,393.9 118.6,392.6 116.5,392.6 116.5,393.9 
		114.5,393.9 114.5,392.5 111.5,392.5 111.5,393.9 109.9,393.9 109.9,392 109.9,391.7 	"/>
	<polygon fill="#E3CECD" points="941,387.4 945,387.4 945,379.6 952.1,379.6 952.1,375.3 944.9,375.3 944.9,353.4 940.3,353.4 
		940.3,343.8 946.3,343.8 946.3,338.4 954.6,338.4 954.6,341 984.9,341 984.9,347.7 991.4,347.7 991.4,351.8 998.8,351.8 
		998.8,358.1 991.8,358.1 991.8,365.5 986.2,365.5 986.2,371.4 982.8,371.4 982.8,383.6 975.5,383.6 975.5,387.4 971.5,387.4 
		969.2,389.7 969.2,396 974.5,396 974.5,399.7 983.2,399.7 983.2,407.3 990.5,407.3 990.5,414 998.8,414 998.8,421.8 1006.6,421.8 
		1006.6,429.4 1012.6,429.4 1012.6,446.9 1007,446.9 1007,452.7 1000.5,452.7 1000.5,460.3 1000.5,476 988,476 988,493.2 
		976.4,493.2 976.4,502.3 958.6,502.3 958.6,494.5 951.1,494.5 951.1,486.9 961.1,486.9 961.1,470.7 970.2,470.7 970.2,447.3 
		970.2,432.1 970.2,421.2 967.6,421.2 967.6,417.5 963.9,417.5 963.9,408.5 959.5,408.5 959.5,399.8 957.9,399.8 957.9,396.5 
		955.7,396.5 955.7,393.3 948.8,393.3 948.8,390.7 940.9,390.7 	"/>
	<polygon fill="#F3E1D0" points="1046.3,517.7 1046.3,521.5 1070.2,521.5 1070.2,517.7 1074.1,517.7 1074.1,513.5 1077.7,513.5 
		1077.7,509.3 1083.3,509.3 1083.3,502 1098.1,502 1098.1,497.2 1102.9,497.2 1102.9,493.9 1095,493.9 1095,489.4 1087.6,489.4 
		1087.6,493.9 1083.8,493.9 1083.8,497.4 1074.6,497.4 1074.6,502.7 1070.6,502.7 1070.6,506.1 1062.4,506.1 1062.4,511.5 
		1055.1,511.5 1055.1,514.4 1050.6,514.4 1050.6,517.6 	"/>
	<polygon fill="#DEC8CC" points="722.1,581.2 722.1,594.1 724.9,594.1 724.9,597.4 725.5,597.4 729.5,597.4 729.5,600.7 
		741.2,600.7 741.2,597.8 744.6,597.8 744.6,587.8 748,587.8 748,584 751.4,584 751.4,580.4 755.1,580.4 755.1,577.4 758.4,577.4 
		758.4,561.1 761.4,561.1 761.4,544.3 764.4,544.3 764.4,531.7 761.3,531.7 761.3,523.8 764.4,523.8 764.4,520.4 767.7,520.4 
		767.7,516.8 771.7,516.8 771.7,513.6 774.5,513.6 774.5,510.6 777.9,510.6 777.9,507.4 781.8,507.4 781.8,504.1 785.1,504.1 
		785.1,497.4 788.2,497.4 788.2,493.4 791.5,493.4 791.5,481 794.6,481 794.6,477.4 798.5,477.4 798.5,467.5 801,467.5 801,460.6 
		805,460.6 805,456.9 808.4,456.9 808.4,450.6 811.8,450.6 811.8,447.3 814.9,447.3 814.9,444.2 818.3,444.2 818.3,440.8 
		821.5,440.8 821.5,437.2 825.2,437.2 825.2,431.7 822.1,431.7 822.1,427.7 818.5,427.7 818.5,417.8 815,417.8 815,394.4 
		811.9,394.4 811.9,390.2 814.5,390.2 814.5,380.3 828.6,380.3 828.6,383.7 835.5,383.7 835.5,386.9 844.8,386.9 844.8,383.8 
		849,383.8 849,390.3 851.9,390.3 851.9,393.7 868.6,393.7 868.6,397.4 865.3,397.4 865.3,399.9 861.3,399.9 861.3,406.6 
		865.7,406.6 865.7,410.4 868.6,410.4 868.6,414 872.5,414 872.5,420.4 876.7,420.4 876.7,424.7 879.1,424.7 879.1,417 881.6,417 
		881.6,406.4 885,406.4 885,403 888.4,403 888.4,397.7 892.1,397.7 892.1,390.6 895.7,390.6 895.7,386.8 902.4,386.8 902.4,380.3 
		905.3,380.3 905.3,370 908.2,370 908.2,365.8 911.3,365.8 911.3,363.4 914.1,363.4 914.1,359.4 918.2,359.4 918.2,351.1 
		914.5,351.1 914.5,341.2 899.8,341.2 899.8,344.5 896.3,344.5 896.3,347.4 892.3,347.4 892.3,351.2 886.2,351.2 886.2,354.2 
		882.6,354.2 882.6,361.4 879.8,361.4 879.8,368.9 876.2,368.9 876.2,373.8 809.8,373.8 809.8,376.9 802.1,376.9 802.1,373.8 
		788.7,373.8 788.7,370.4 782,370.4 782,367.3 775,367.3 775,364.1 771.1,364.1 771.1,354.5 767.8,354.5 767.8,350.8 747.2,350.8 
		747.2,331.2 744.6,331.2 744.6,320.8 741.2,320.8 741.2,306.5 738.1,306.5 738.1,303.7 728.1,303.7 728.1,306.8 725.6,306.8 
		725.6,310.5 711.8,310.5 711.8,314.1 708.4,314.1 708.4,317.5 702.1,317.5 702.1,320.6 698.8,320.6 698.8,324.6 695.4,324.6 
		695.4,329.7 698.9,329.7 698.9,336.7 702,336.7 702,347 698.2,347 698.2,353.4 706.2,353.4 706.2,363.4 701.5,363.4 701.5,370.4 
		698.2,370.4 698.2,374.4 694.5,374.4 694.5,377.2 692.1,377.2 692.1,384 684.9,384 684.9,381 678.7,381 678.7,386.9 674.9,386.9 
		674.9,390.9 671.5,390.9 671.5,400.2 677.5,400.2 677.5,409.9 682.3,409.9 682.3,413.5 684.8,413.5 684.8,416.9 688.9,416.9 
		688.9,424.3 685.2,424.3 685.2,420.9 678.9,420.9 678.9,424.3 675.1,424.3 675.1,421.1 665.5,421.1 665.5,433.6 668.9,433.6 
		668.9,436.9 672.8,436.9 676.2,436.9 676.2,444.2 665.5,444.2 665.5,450 668.4,450 668.4,453.1 672.9,453.1 672.9,456.8 
		676.2,456.8 678.9,456.8 678.9,459.6 681.1,459.6 681.1,464.3 689.5,464.3 689.5,460.6 690.7,460.6 690.7,457 694.1,457 
		694.1,445.8 698.5,445.8 698.5,464.7 695.2,464.7 695.2,480.2 698.6,480.2 698.6,500.7 702.4,500.7 702.4,517 705.1,517 
		705.1,527.2 709.1,527.2 709.1,544 711.3,544 711.3,557.1 715.1,557.1 715.1,567.4 718.7,567.4 718.7,580.8 718.7,581.2 	"/>
	<polygon fill="#EEDBCF" points="1040.7,427 1037.3,427 1037.3,414.6 1034,414.6 1034,407.2 1037.3,407.2 1037.3,389.5 
		1058.8,389.5 1058.8,393.2 1063.8,393.2 1063.8,406.9 1058.8,406.9 1058.8,410.3 1053.7,410.3 1053.7,418.3 1063.8,418.3 
		1063.8,422.3 1054.4,422.3 1054.4,431.7 1059.5,431.7 1059.5,427.7 1066.8,427.7 1066.8,433.7 1078.2,433.7 1078.2,428.3 
		1082.2,428.3 1082.2,432.3 1084.4,434.5 1076.6,434.5 1076.6,440.1 1080.6,440.1 1080.6,444.8 1093.7,444.8 1093.7,460.5 
		1089.3,460.5 1089.3,468.9 1085.5,468.9 1085.5,460.5 1080.2,460.5 1080.2,468.9 1083.2,468.9 1083.2,479 1073.5,479 1073.5,475.2 
		1077.2,475.2 1077.2,469.9 1070.8,469.9 1070.8,474.3 1066.4,474.3 1066.4,479 1069.9,479 1069.9,483 1063.8,483 1063.8,479 
		1058.8,479 1058.8,474.5 1061.8,474.5 1063.8,474.5 1063.8,465.9 1055,465.9 1055,458.4 1060.2,458.4 1060.2,454.1 1062.5,454.1 
		1062.5,457.9 1066.9,457.9 1066.9,461.9 1072,461.9 1072,466.6 1077.5,466.6 1077.5,457.9 1085.1,457.9 1085.1,452.5 1067.7,452.5 
		1067.7,444 1071.7,444 1071.7,439.9 1068.9,439.9 1068.9,435.6 1063.8,435.6 1063.8,440 1055.5,440 1055.5,435.1 1050,435.1 
		1050,448.9 1047,448.9 1047,445 1042.1,445 1042.1,436.2 1046.6,436.2 1046.6,431.8 1042.5,431.8 1042.5,428.3 1047,428.3 
		1047,422.8 1042,422.8 1042,426.6 	"/>
	<polygon fill="#F1EDED" stroke="#F1EDED" stroke-width="1.0581" stroke-miterlimit="10" points="600.4,365.7 600.4,379.3 
		609.5,379.3 609.5,393.8 642.1,393.8 652.1,400.8 683.1,367.3 665.5,338.4 616.6,310.8 	"/>
	<polygon fill="#FEEED2" points="494.1,260.1 498.2,260.1 498.2,259.2 503.1,259.2 503.1,261.9 504.7,261.9 504.7,270 505.8,270 
		505.8,273.2 497.7,273.2 497.7,275 500,275 500,277.3 489,277.3 489,279.6 485.7,279.6 485.7,273.5 481,273.5 481,269.1 
		482.1,269.1 482.1,261.3 484.5,261.3 484.5,260.1 	"/>
	<line fill="none" stroke="#6D6D6D" stroke-miterlimit="10" x1="841.3" y1="723.2" x2="841.3" y2="730.3"/>
	<g>
		<text transform="matrix(1 0 0 1 48.4278 199.0109)" font-family="'AauxProBold'" font-size="12">1%</text>
		<g>
			<path d="M80.1,190.6v0.7c-0.1,0.1-0.2,3.2-0.3,3.4c0,0,0,0.1,0,0.1c0,0.1-0.1,2.5-0.1,2.7c0,0.1,0,1.3,0,1.3
				c0,0.1-1.1,0.1-1.1,0.2l-0.2-0.4c0-0.1,0-1.5,0-1.7s0-1.4,0.1-1.5c0.1-0.2,0.1-2.2,0.3-2.3l-0.3-0.9l-0.3,0.1l-0.2,0.2l-0.8,0.4
				l0,0l-0.5-1.1l1.3-0.6l0.1,0l1.2-0.6H80.1z"/>
			<path d="M89.5,196.8c0-0.5-0.1-0.8-0.2-1c-0.1-0.2-0.3-0.3-0.6-0.3c-0.3,0-0.5,0.1-0.6,0.3c-0.1,0.2-0.2,0.6-0.2,1s0.1,0.8,0.2,1
				c0.1,0.2,0.3,0.3,0.6,0.3c0.3,0,0.5-0.1,0.6-0.3C89.5,197.6,89.5,197.2,89.5,196.8z M85.8,192.9c0,0.6-0.1,1.2-0.3,1.5
				c-0.3,0.6-0.8,0.8-1.5,0.8c-0.7,0-1.2-0.3-1.5-0.8c-0.2-0.4-0.3-0.9-0.3-1.5s0.1-1.2,0.3-1.5c0.3-0.6,0.8-0.8,1.5-0.8
				c0.7,0,1.2,0.3,1.5,0.8C85.7,191.7,85.8,192.2,85.8,192.9z M84.7,192.9c0-0.5-0.1-0.8-0.2-1c-0.1-0.2-0.3-0.3-0.6-0.3
				c-0.3,0-0.5,0.1-0.6,0.3c-0.1,0.2-0.2,0.6-0.2,1s0.1,0.8,0.2,1c0.1,0.2,0.3,0.3,0.6,0.3c0.3,0,0.5-0.1,0.6-0.3
				C84.7,193.7,84.7,193.3,84.7,192.9z M88.8,190.6L85,199h-1.2l3.8-8.4H88.8z M90.6,196.8c0,0.6-0.1,1.1-0.3,1.5
				c-0.3,0.6-0.8,0.8-1.5,0.8c-0.7,0-1.2-0.3-1.5-0.8c-0.2-0.4-0.3-0.9-0.3-1.5c0-0.6,0.1-1.2,0.3-1.5c0.3-0.6,0.8-0.8,1.5-0.8
				c0.7,0,1.2,0.3,1.5,0.8C90.5,195.6,90.6,196.1,90.6,196.8z"/>
		</g>
		<g>
			<path d="M108.3,190.6v0.8c-0.3,0.3-0.4,2.9-0.6,3.2c0,0,0,0.1,0,0.1c-0.1,0.2-0.1,2.3-0.2,2.6c0,0.1,0,1.2,0,1.3
				c0,0.1-0.8,0.3-0.8,0.4l-0.4-0.3c0-0.3,0-1.5,0.1-1.8s0.1-1.4,0.2-1.6c0.1-0.3,0.3-2.1,0.5-2.4l-0.7-0.7l-0.3,0.1l-0.2,0.3
				l-0.9,0.3l0,0l-0.4-1.2l1.6-0.5l0.2,0l1.3-0.5H108.3z"/>
			<path d="M117.6,196.8c0-0.5-0.1-0.8-0.2-1c-0.1-0.2-0.3-0.3-0.6-0.3c-0.3,0-0.5,0.1-0.6,0.3c-0.1,0.2-0.2,0.6-0.2,1
				s0.1,0.8,0.2,1c0.1,0.2,0.3,0.3,0.6,0.3c0.3,0,0.5-0.1,0.6-0.3C117.5,197.6,117.6,197.2,117.6,196.8z M113.8,192.9
				c0,0.6-0.1,1.2-0.3,1.5c-0.3,0.6-0.8,0.8-1.5,0.8c-0.7,0-1.2-0.3-1.5-0.8c-0.2-0.4-0.3-0.9-0.3-1.5s0.1-1.2,0.3-1.5
				c0.3-0.6,0.8-0.8,1.5-0.8c0.7,0,1.2,0.3,1.5,0.8C113.7,191.7,113.8,192.2,113.8,192.9z M112.8,192.9c0-0.5-0.1-0.8-0.2-1
				c-0.1-0.2-0.3-0.3-0.6-0.3c-0.3,0-0.5,0.1-0.6,0.3c-0.1,0.2-0.2,0.6-0.2,1s0.1,0.8,0.2,1c0.1,0.2,0.3,0.3,0.6,0.3
				c0.3,0,0.5-0.1,0.6-0.3C112.7,193.7,112.8,193.3,112.8,192.9z M116.8,190.6L113,199h-1.2l3.8-8.4H116.8z M118.6,196.8
				c0,0.6-0.1,1.1-0.3,1.5c-0.3,0.6-0.8,0.8-1.5,0.8c-0.7,0-1.2-0.3-1.5-0.8c-0.2-0.4-0.3-0.9-0.3-1.5c0-0.6,0.1-1.2,0.3-1.5
				c0.3-0.6,0.8-0.8,1.5-0.8c0.7,0,1.2,0.3,1.5,0.8C118.5,195.6,118.6,196.1,118.6,196.8z"/>
		</g>
		<g>
			<path d="M136.5,190.6v0.8c-0.4,0.4-0.7,2.6-0.9,3.1c0,0,0,0.1,0,0.1c-0.1,0.3-0.2,2.1-0.3,2.5c0,0.2-0.1,1.1-0.1,1.3
				c0,0.2-0.6,0.4-0.6,0.6l-0.6-0.2c0-0.4,0-1.6,0.1-1.9s0.1-1.4,0.3-1.7c0.2-0.5,0.4-2.1,0.8-2.5l-1-0.6l-0.4,0.1l-0.1,0.4
				l-0.9,0.2l0,0l-0.3-1.4l1.8-0.4l0.2,0l1.5-0.3H136.5z"/>
			<path d="M145.6,196.8c0-0.5-0.1-0.8-0.2-1c-0.1-0.2-0.3-0.3-0.6-0.3c-0.3,0-0.5,0.1-0.6,0.3c-0.1,0.2-0.2,0.6-0.2,1
				s0.1,0.8,0.2,1c0.1,0.2,0.3,0.3,0.6,0.3c0.3,0,0.5-0.1,0.6-0.3C145.5,197.6,145.6,197.2,145.6,196.8z M141.8,192.9
				c0,0.6-0.1,1.2-0.3,1.5c-0.3,0.6-0.8,0.8-1.5,0.8c-0.7,0-1.2-0.3-1.5-0.8c-0.2-0.4-0.3-0.9-0.3-1.5s0.1-1.2,0.3-1.5
				c0.3-0.6,0.8-0.8,1.5-0.8c0.7,0,1.2,0.3,1.5,0.8C141.7,191.7,141.8,192.2,141.8,192.9z M140.8,192.9c0-0.5-0.1-0.8-0.2-1
				c-0.1-0.2-0.3-0.3-0.6-0.3c-0.3,0-0.5,0.1-0.6,0.3c-0.1,0.2-0.2,0.6-0.2,1s0.1,0.8,0.2,1c0.1,0.2,0.3,0.3,0.6,0.3
				c0.3,0,0.5-0.1,0.6-0.3C140.7,193.7,140.8,193.3,140.8,192.9z M144.9,190.6L141,199h-1.2l3.8-8.4H144.9z M146.6,196.8
				c0,0.6-0.1,1.1-0.3,1.5c-0.3,0.6-0.8,0.8-1.5,0.8c-0.7,0-1.2-0.3-1.5-0.8c-0.2-0.4-0.3-0.9-0.3-1.5c0-0.6,0.1-1.2,0.3-1.5
				c0.3-0.6,0.8-0.8,1.5-0.8c0.7,0,1.2,0.3,1.5,0.8C146.5,195.6,146.6,196.1,146.6,196.8z"/>
		</g>
		<g>
			<path d="M164.7,190.6v0.9c-0.5,0.5-0.9,2.3-1.2,2.9c0,0.1,0,0.1-0.1,0.2c-0.2,0.4-0.3,1.8-0.4,2.3c0,0.3-0.1,1-0.1,1.3
				c0,0.3-0.4,0.5-0.4,0.8l-0.8-0.2c0-0.5,0-1.6,0.1-2.1s0.2-1.4,0.3-1.8c0.2-0.6,0.6-2,1-2.6l-1.3-0.4l-0.4,0l-0.1,0.4l-1,0.2l0,0
				l-0.2-1.5l2-0.2l0.2,0l1.6-0.2H164.7z"/>
			<path d="M173.6,196.8c0-0.5-0.1-0.8-0.2-1c-0.1-0.2-0.3-0.3-0.6-0.3c-0.3,0-0.5,0.1-0.6,0.3c-0.1,0.2-0.2,0.6-0.2,1
				s0.1,0.8,0.2,1c0.1,0.2,0.3,0.3,0.6,0.3c0.3,0,0.5-0.1,0.6-0.3C173.5,197.6,173.6,197.2,173.6,196.8z M169.9,192.9
				c0,0.6-0.1,1.2-0.3,1.5c-0.3,0.6-0.8,0.8-1.5,0.8c-0.7,0-1.2-0.3-1.5-0.8c-0.2-0.4-0.3-0.9-0.3-1.5s0.1-1.2,0.3-1.5
				c0.3-0.6,0.8-0.8,1.5-0.8c0.7,0,1.2,0.3,1.5,0.8C169.7,191.7,169.9,192.2,169.9,192.9z M168.8,192.9c0-0.5-0.1-0.8-0.2-1
				c-0.1-0.2-0.3-0.3-0.6-0.3c-0.3,0-0.5,0.1-0.6,0.3c-0.1,0.2-0.2,0.6-0.2,1s0.1,0.8,0.2,1c0.1,0.2,0.3,0.3,0.6,0.3
				c0.3,0,0.5-0.1,0.6-0.3C168.8,193.7,168.8,193.3,168.8,192.9z M172.9,190.6l-3.8,8.4h-1.2l3.8-8.4H172.9z M174.7,196.8
				c0,0.6-0.1,1.1-0.3,1.5c-0.3,0.6-0.8,0.8-1.5,0.8c-0.7,0-1.2-0.3-1.5-0.8c-0.2-0.4-0.3-0.9-0.3-1.5c0-0.6,0.1-1.2,0.3-1.5
				c0.3-0.6,0.8-0.8,1.5-0.8c0.7,0,1.2,0.3,1.5,0.8C174.5,195.6,174.7,196.1,174.7,196.8z"/>
		</g>
		<g>
			<path d="M193,190.6v0.9c-0.6,0.7-1.1,2-1.5,2.8c0,0.1-0.1,0.1-0.1,0.2c-0.2,0.5-0.4,1.6-0.5,2.2c-0.1,0.3-0.1,0.9-0.1,1.2
				c0,0.3-0.2,0.7-0.2,1l-1-0.1c0-0.7,0-1.6,0.1-2.2s0.2-1.4,0.4-1.9c0.3-0.8,0.7-2,1.3-2.7l-1.7-0.2l-0.5,0l0,0.5l-1.1,0.1l0,0
				l-0.1-1.6l2.2-0.1l0.3,0l1.7-0.1H193z"/>
			<path d="M201.6,196.8c0-0.5-0.1-0.8-0.2-1c-0.1-0.2-0.3-0.3-0.6-0.3c-0.3,0-0.5,0.1-0.6,0.3c-0.1,0.2-0.2,0.6-0.2,1
				s0.1,0.8,0.2,1c0.1,0.2,0.3,0.3,0.6,0.3c0.3,0,0.5-0.1,0.6-0.3C201.6,197.6,201.6,197.2,201.6,196.8z M197.9,192.9
				c0,0.6-0.1,1.2-0.3,1.5c-0.3,0.6-0.8,0.8-1.5,0.8c-0.7,0-1.2-0.3-1.5-0.8c-0.2-0.4-0.3-0.9-0.3-1.5s0.1-1.2,0.3-1.5
				c0.3-0.6,0.8-0.8,1.5-0.8c0.7,0,1.2,0.3,1.5,0.8C197.8,191.7,197.9,192.2,197.9,192.9z M196.9,192.9c0-0.5-0.1-0.8-0.2-1
				c-0.1-0.2-0.3-0.3-0.6-0.3c-0.3,0-0.5,0.1-0.6,0.3c-0.1,0.2-0.2,0.6-0.2,1s0.1,0.8,0.2,1c0.1,0.2,0.3,0.3,0.6,0.3
				c0.3,0,0.5-0.1,0.6-0.3C196.8,193.7,196.9,193.3,196.9,192.9z M200.9,190.6l-3.8,8.4h-1.2l3.8-8.4H200.9z M202.7,196.8
				c0,0.6-0.1,1.1-0.3,1.5c-0.3,0.6-0.8,0.8-1.5,0.8c-0.7,0-1.2-0.3-1.5-0.8c-0.2-0.4-0.3-0.9-0.3-1.5c0-0.6,0.1-1.2,0.3-1.5
				c0.3-0.6,0.8-0.8,1.5-0.8c0.7,0,1.2,0.3,1.5,0.8C202.6,195.6,202.7,196.1,202.7,196.8z"/>
		</g>
		<text transform="matrix(1 0 0 1 215.4754 199.011)" font-family="'AauxProBold'" font-size="12">7%</text>
	</g>
	<g>
		<rect x="48.1" y="160.8" fill="#FFEFD2" width="13.2" height="16.8"/>
		<rect x="52.3" y="160.8" fill="#FEEED2" width="13.2" height="16.8"/>
		<rect x="56.6" y="160.8" fill="#FDEDD2" width="13.2" height="16.8"/>
		<rect x="60.8" y="160.8" fill="#FDECD2" width="13.2" height="16.8"/>
		<rect x="65.1" y="160.8" fill="#FCEBD1" width="13.2" height="16.8"/>
		<rect x="69.3" y="160.8" fill="#FBEAD1" width="13.2" height="16.8"/>
		<rect x="73.6" y="160.8" fill="#FAE9D1" width="13.2" height="16.8"/>
		<rect x="77.8" y="160.8" fill="#F9E8D1" width="13.2" height="16.8"/>
		<rect x="82.1" y="160.8" fill="#F8E7D1" width="13.2" height="16.8"/>
		<rect x="86.3" y="160.8" fill="#F8E6D1" width="13.2" height="16.8"/>
		<rect x="90.6" y="160.8" fill="#F7E5D0" width="13.2" height="16.8"/>
		<rect x="94.8" y="160.8" fill="#F6E4D0" width="13.2" height="16.8"/>
		<rect x="99.1" y="160.8" fill="#F5E3D0" width="13.2" height="16.8"/>
		<rect x="103.3" y="160.8" fill="#F4E2D0" width="13.2" height="16.8"/>
		<rect x="107.6" y="160.8" fill="#F3E1D0" width="13.2" height="16.8"/>
		<rect x="111.8" y="160.8" fill="#F3E0D0" width="13.2" height="16.8"/>
		<rect x="116.1" y="160.8" fill="#F2DFD0" width="13.2" height="16.8"/>
		<rect x="120.4" y="160.8" fill="#F1DECF" width="13.2" height="16.8"/>
		<rect x="124.6" y="160.8" fill="#F0DDCF" width="13.2" height="16.8"/>
		<rect x="128.9" y="160.8" fill="#EFDCCF" width="13.2" height="16.8"/>
		<rect x="133.1" y="160.8" fill="#EFDCCF" width="13.2" height="16.8"/>
		<rect x="137.4" y="160.8" fill="#EEDBCF" width="13.2" height="16.8"/>
		<rect x="141.6" y="160.8" fill="#EDDACF" width="13.2" height="16.8"/>
		<rect x="145.9" y="160.8" fill="#ECD9CF" width="13.2" height="16.8"/>
		<rect x="150.1" y="160.8" fill="#EBD8CE" width="13.2" height="16.8"/>
		<rect x="154.4" y="160.8" fill="#EAD7CE" width="13.2" height="16.8"/>
		<rect x="158.6" y="160.8" fill="#EAD6CE" width="13.2" height="16.8"/>
		<rect x="162.9" y="160.8" fill="#E9D5CE" width="13.2" height="16.8"/>
		<rect x="167.1" y="160.8" fill="#E8D4CE" width="13.2" height="16.8"/>
		<rect x="171.4" y="160.8" fill="#E7D3CE" width="13.2" height="16.8"/>
		<rect x="175.6" y="160.8" fill="#E6D2CE" width="13.2" height="16.8"/>
		<rect x="179.9" y="160.8" fill="#E5D1CD" width="13.2" height="16.8"/>
		<rect x="184.1" y="160.8" fill="#E5D0CD" width="13.2" height="16.8"/>
		<rect x="188.4" y="160.8" fill="#E4CFCD" width="13.2" height="16.8"/>
		<rect x="192.6" y="160.8" fill="#E3CECD" width="13.2" height="16.8"/>
		<rect x="196.9" y="160.8" fill="#E2CDCD" width="13.2" height="16.8"/>
		<rect x="201.1" y="160.8" fill="#E1CCCD" width="13.2" height="16.8"/>
		<rect x="205.4" y="160.8" fill="#E0CBCC" width="13.2" height="16.8"/>
		<rect x="209.6" y="160.8" fill="#E0CACC" width="13.2" height="16.8"/>
		<rect x="213.9" y="160.8" fill="#DFC9CC" width="13.2" height="16.8"/>
		<rect x="218.1" y="160.8" fill="#DEC8CC" width="13.2" height="16.8"/>
	</g>
	<line fill="none" x1="224.8" y1="142.7" x2="54.7" y2="142.7"/>
</g>
<g id="singapore">
	
		<image overflow="visible" width="884" height="62" xlink:href="../../../Desktop/Screen Shot 2023-12-12 at 7.09.59 PM.jpg"  transform="matrix(7.016797e-02 0 0 7.016797e-02 961.866 518.5251)">
	</image>
	<polygon fill="#E9D5CE" points="961.9,509.3 996.2,509.3 996.2,483.3 1003.6,483.3 1003.6,495.5 1013.5,495.5 1013.5,513.7 
		1023.9,513.7 1023.9,523.6 1019.1,523.6 1019.1,527.9 1012.6,527.9 1012.6,539.6 980.1,539.6 966.6,539.6 966.6,528.3 961.9,528.3 
			"/>
</g>
</svg>
